<svg width="61" height="61" fill="none" xmlns="http://www.w3.org/2000/svg"><path d="M30.5 23.511c6.482 0 11.756-5.273 11.756-11.755C42.256 5.274 36.982 0 30.5 0S18.744 5.274 18.744 11.756 24.018 23.51 30.5 23.51zm0-21.564c5.409 0 9.809 4.4 9.809 9.809 0 5.408-4.4 9.808-9.809 9.808-5.409 0-9.809-4.4-9.809-9.808 0-5.409 4.4-9.81 9.809-9.81zm-4.233 25.556a.973.973 0 00.364 1.912c2.525-.48 5.19-.481 7.716-.004a.974.974 0 00.361-1.913 22.865 22.865 0 00-8.44.005z" fill="#7798CE"/><path d="M30.5 17.945a6.237 6.237 0 005.17-2.75.973.973 0 10-1.612-1.091 4.292 4.292 0 01-3.558 1.895 4.293 4.293 0 01-3.558-1.895.973.973 0 10-1.613 1.09 6.237 6.237 0 005.171 2.751zm5.824 15.459c0 4.714 3.836 8.55 8.55 8.55s8.55-3.836 8.55-8.55-3.836-8.55-8.55-8.55-8.55 3.836-8.55 8.55zm8.55-6.603a6.61 6.61 0 016.603 6.603 6.61 6.61 0 01-6.603 6.603 6.61 6.61 0 01-6.603-6.603 6.61 6.61 0 016.603-6.603z" fill="#7798CE"/><path d="M44.874 38.043c1.553 0 3-.77 3.873-2.06a.973.973 0 10-1.613-1.091 2.727 2.727 0 01-2.26 1.204c-.905 0-1.75-.45-2.26-1.204A.973.973 0 1041 35.982a4.672 4.672 0 003.873 2.06zm-28.748 3.911c4.714 0 8.55-3.836 8.55-8.55s-3.836-8.55-8.55-8.55-8.55 3.836-8.55 8.55 3.836 8.55 8.55 8.55zm0-15.153a6.61 6.61 0 016.603 6.603 6.61 6.61 0 01-6.603 6.603 6.61 6.61 0 01-6.603-6.603 6.61 6.61 0 016.603-6.603z" fill="#7798CE"/><path d="M16.126 38.043c1.553 0 3-.77 3.873-2.06a.973.973 0 10-1.613-1.091 2.727 2.727 0 01-2.26 1.204c-.906 0-1.75-.45-2.26-1.204a.973.973 0 10-1.613 1.09 4.672 4.672 0 003.873 2.06zm0 5.857C7.234 43.9 0 51.136 0 60.028a.973.973 0 101.947 0c0-7.819 6.36-14.18 14.18-14.18 7.817 0 14.178 6.361 14.178 14.18a.973.973 0 101.947 0c0-8.892-7.234-16.127-16.126-16.127zm28.748 0c-5.077 0-9.756 2.32-12.836 6.363a.973.973 0 101.549 1.18c2.709-3.556 6.823-5.596 11.287-5.596 7.819 0 14.18 6.361 14.18 14.18a.973.973 0 101.946 0C61 51.135 53.766 43.9 44.874 43.9z" fill="#7798CE"/></svg>