<svg width="59" height="59" fill="none" xmlns="http://www.w3.org/2000/svg"><path d="M29.5 26.727c-7.845 0-14.228 6.382-14.228 14.227 0 7.846 6.383 14.228 14.228 14.228s14.228-6.383 14.228-14.228S37.345 26.727 29.5 26.727zM41.969 40.09h-4.937c-.064-2.105-.36-4.074-.842-5.82a17.608 17.608 0 003.052-1.137 12.436 12.436 0 012.727 6.957zm-2.727 8.685a17.595 17.595 0 00-3.052-1.136c.482-1.746.778-3.715.842-5.82h4.937a12.437 12.437 0 01-2.727 6.956zm-22.21-6.956h4.936c.064 2.105.36 4.074.842 5.82a17.591 17.591 0 00-3.052 1.136 12.437 12.437 0 01-2.727-6.956zm2.726-8.686c.918.45 1.946.832 3.052 1.137-.482 1.746-.778 3.714-.842 5.82H17.03a12.436 12.436 0 012.727-6.957zm14.068 19.548c.711-.924 1.33-2.073 1.83-3.4.84.229 1.629.504 2.35.823a12.52 12.52 0 01-4.18 2.577zm-.374-2.664c-1.092 2.184-2.533 3.436-3.952 3.436-1.42 0-2.86-1.252-3.951-3.436a14.098 14.098 0 01-.497-1.12A24.777 24.777 0 0129.5 48.5c1.536 0 3.04.138 4.448.396-.154.39-.318.765-.496 1.121zm-12.457.087a16.49 16.49 0 012.348-.822c.5 1.326 1.12 2.475 1.83 3.4a12.517 12.517 0 01-4.178-2.578zm8.505-3.332c-1.724 0-3.418.163-5.002.471-.462-1.649-.737-3.492-.8-5.425h11.604c-.064 1.933-.338 3.776-.8 5.425a26.357 26.357 0 00-5.002-.471zm-5.802-6.682c.064-1.932.338-3.776.8-5.425 1.584.309 3.278.472 5.002.472a26.34 26.34 0 005.002-.471c.462 1.648.736 3.492.8 5.424H23.698zm5.802-6.682c-1.536 0-3.04-.137-4.448-.395.154-.39.318-.766.496-1.121 1.092-2.184 2.533-3.437 3.952-3.437 1.42 0 2.86 1.253 3.952 3.437.178.355.342.731.496 1.12a24.791 24.791 0 01-4.448.396zm-4.326-4.18c-.711.923-1.33 2.073-1.83 3.399a16.56 16.56 0 01-2.35-.823 12.519 12.519 0 014.18-2.576zm8.652 0a12.521 12.521 0 014.18 2.576 16.55 16.55 0 01-2.35.823c-.5-1.326-1.119-2.476-1.83-3.4zM4.682 7.456h.955a.864.864 0 100-1.729h-.955a.864.864 0 100 1.729zm5.728 0h.954a.864.864 0 100-1.729h-.955a.864.864 0 100 1.729zm5.727 0h.954a.864.864 0 100-1.729h-.954a.864.864 0 100 1.729z" fill="#fff"/><path d="M59 4.682C59 2.1 56.9 0 54.319 0H4.683A4.688 4.688 0 00.001 4.682v32.454c0 2.582 2.1 4.682 4.682 4.682h6.793C11.93 51.37 19.84 59 29.501 59c9.66 0 17.572-7.63 18.024-17.181h6.793c2.582 0 4.683-2.1 4.683-4.683V4.682zM4.684 1.73h49.635a2.957 2.957 0 012.954 2.953v6.772H1.729V4.682A2.957 2.957 0 014.683 1.73zm24.817 55.54c-8.998 0-16.317-7.32-16.317-16.317s7.32-16.317 16.317-16.317 16.317 7.32 16.317 16.317c0 8.998-7.32 16.318-16.317 16.318zm24.817-17.18h-6.793c-.452-9.55-8.364-17.181-18.024-17.181-9.661 0-17.572 7.63-18.025 17.181H4.683a2.957 2.957 0 01-2.954-2.954V13.183h55.543v23.953a2.957 2.957 0 01-2.954 2.954z" fill="#fff"/><path d="M22.786 9.365h30.61c.985 0 1.786-.801 1.786-1.786V5.604c0-.985-.801-1.786-1.786-1.786h-30.61C21.8 3.818 21 4.619 21 5.604v1.974c0 .986.8 1.787 1.786 1.787zm-.058-3.76c0-.033.026-.058.058-.058h30.61c.032 0 .058.025.058.057v1.974a.058.058 0 01-.058.058h-30.61a.058.058 0 01-.058-.058V5.604z" fill="#fff"/></svg>