<svg width="60" height="60" fill="none" xmlns="http://www.w3.org/2000/svg"><path d="M36.967 24.521a3.403 3.403 0 00-3.4 3.4 3.404 3.404 0 003.4 3.399 3.403 3.403 0 003.399-3.4 3.403 3.403 0 00-3.399-3.399zm0 5.04c-.904 0-1.64-.736-1.64-1.64 0-.905.736-1.64 1.64-1.64.904 0 1.64.735 1.64 1.64 0 .904-.736 1.64-1.64 1.64zM26.731 16.005a.88.88 0 00-.68 1.04 4.672 4.672 0 01-4.567 5.626 4.671 4.671 0 01-4.667-4.665 4.671 4.671 0 014.666-4.666c1.068 0 2.072.35 2.905 1.015a.88.88 0 001.096-1.377 6.444 6.444 0 00-4-1.397 6.432 6.432 0 00-6.425 6.425 6.432 6.432 0 006.424 6.425 6.432 6.432 0 006.29-7.745.88.88 0 00-1.042-.68zM4.44 57.714H.88a.88.88 0 100 1.76h3.56a.88.88 0 100-1.76zm9.064 0H9.943a.88.88 0 100 1.76h3.56a.88.88 0 100-1.76z" fill="#42A3F6"/><path d="M55.99 56.277a.88.88 0 00.667.306h2.138a.88.88 0 00.779-1.289L56 48.498a.802.802 0 01-.07-.567l1.578-6.37v-.002l.002-.002.002-.012a.598.598 0 00.012-.061l.003-.02v-.002l.002-.013.005-.047v-.018c0-.02.002-.038.001-.057v-1.655a.88.88 0 10-1.758 0v.363l-3.823-1.567.078-5.004.501.305a.88.88 0 00.914-1.503l-1.822-1.107-.02-.013-5.744-3.49a3.361 3.361 0 01-1.595-2.576l8.768 4.762c.048.029.095.057.144.083l.149.076 1.248.678a2.297 2.297 0 011.201 2.02v3.441a.88.88 0 001.76 0v-3.441c0-.96-.34-1.869-.931-2.584.35-.243.638-.57.838-.96l.938-1.833a2.61 2.61 0 00.162-2.006 2.611 2.611 0 00-1.304-1.534l-.725-.372a2.634 2.634 0 00-3.54 1.143l-.938 1.832a2.624 2.624 0 00-.255.775l-6.955-3.778a1.35 1.35 0 00-.34-1.34l-1.551-1.551a1.36 1.36 0 00-1.843-.07l-1.321 1.134a6.106 6.106 0 00-.185-.079l-.107-1.756a1.358 1.358 0 00-1.353-1.273h-2.194c-.5 0-.942.277-1.177.688v-2.619c0-.814-.636-1.5-1.447-1.562l-1.728-.132a10.575 10.575 0 00-.631-1.555l1.166-1.317a1.568 1.568 0 00-.065-2.146l-2.236-2.237a1.573 1.573 0 00-2.128-.081l-1.315 1.128a10.545 10.545 0 00-1.546-.654l-.107-1.755a1.568 1.568 0 00-1.563-1.472h-3.164c-.813 0-1.5.636-1.561 1.447l-.132 1.728c-.588.185-1.158.421-1.704.706l-1.316-1.128a1.573 1.573 0 00-2.127.08l-2.236 2.237a1.568 1.568 0 00-.066 2.146l1.167 1.318a10.46 10.46 0 00-.631 1.555l-1.729.132a1.573 1.573 0 00-1.446 1.562v3.162c0 .827.646 1.514 1.47 1.564l1.756.107c.177.532.395 1.049.654 1.546l-1.128 1.315a1.573 1.573 0 00.081 2.127l2.237 2.237a1.568 1.568 0 002.145.065l1.318-1.166c.502.252 1.022.463 1.555.63l.13 1.71-4.533.484a.297.297 0 01-.183-.04l-4.336-2.78c.434-.42.728-.989.789-1.636l.193-2.05a2.615 2.615 0 00-.592-1.924 2.614 2.614 0 00-1.78-.941l-.81-.077a2.61 2.61 0 00-1.925.592 2.613 2.613 0 00-.942 1.78l-.193 2.049a2.608 2.608 0 00.495 1.794c-.12.102-.236.21-.342.331l-.408.462a4.684 4.684 0 00-1.17 3.059l-.057 6.942-2.27 17.608a.88.88 0 00.871.992h2.277a.88.88 0 00.832-.593l5.652-16.384 5.258 5.47a.912.912 0 01.131 1.113.876.876 0 00-.06.122l-3.5 8.514h-.462l1.548-6.89a1.546 1.546 0 00-.214-1.406.95.95 0 00-.071-.087l-1.622-1.722a.88.88 0 00-1.28 1.206l1.482 1.575-1.8 8.01a.88.88 0 00.858 1.072h2.15a.88.88 0 00.813-.544l3.7-9.003a2.666 2.666 0 00-.413-3.188l-5.996-6.238.047-3.566 1.782.99a2.04 2.04 0 001.25.243l4.49-.552a4.201 4.201 0 003.597-3.322h1.471c.826 0 1.513-.646 1.563-1.47l.107-1.756c.478-.16.944-.353 1.397-.58l1.271 1.126v.482c0 .715.559 1.31 1.273 1.354l1.755.107c.026.061.052.123.08.185l-1.136 1.322a1.363 1.363 0 00.072 1.84l1.553 1.554a1.359 1.359 0 001.855.053l1.317-1.165.187.076.132 1.733a1.36 1.36 0 001.351 1.255h2.194a1.36 1.36 0 001.353-1.273l.107-1.755.085-.036 1.316 1.166a1.36 1.36 0 001.858-.056l1.55-1.552a1.363 1.363 0 00.071-1.84l-1.134-1.322.08-.185 1.756-.108a1.35 1.35 0 00.995-.535l4.127 2.507-.1 6.358-4.938 6.866a2.708 2.708 0 00-.495 1.86l.862 8.305a.88.88 0 00.875.789h2.016a.88.88 0 00.877-.81l.522-6.634a.932.932 0 01.043-.215 2.9 2.9 0 00.548.963l5.489 6.39zM53.548 27.85a.866.866 0 01.054-.665l.938-1.831a.873.873 0 011.173-.379l.725.371c.208.106.36.287.432.508a.865.865 0 01-.053.665l-.938 1.832a.865.865 0 01-.508.432.866.866 0 01-.665-.053l-.555-.284-.263-.143a.865.865 0 01-.34-.453zM34.521 20.5l-.072.935a6.989 6.989 0 00-.287.119l-.462-.397c.344-.119.633-.354.821-.657zM5.868 25.435l.194-2.05a.867.867 0 01.95-.785l.81.077a.866.866 0 01.59.312.867.867 0 01.196.637l-.193 2.05a.872.872 0 01-.828.787 3.134 3.134 0 00-1.17-.136.873.873 0 01-.549-.892zM2.887 54.699h-.65l2.051-15.912 4.107-.055-5.508 15.967zm14.986-21.845l-4.49.553a.294.294 0 01-.18-.035l-3.055-1.698a.749.749 0 00-.03-.016l-2.072-1.153a.88.88 0 10-.855 1.537l1.63.906-.054 4.02-4.366.058.05-6.095a2.922 2.922 0 01.731-1.91l.407-.463c.205-.232.468-.381.748-.444.05.007.1.017.152.021l.736.07c.062.028.123.061.182.099l5.365 3.438.012.008a2.07 2.07 0 001.299.295l5.714-.609a2.44 2.44 0 01-1.924 1.418zm8.031-7.208a8.785 8.785 0 01-2.145.89.88.88 0 00-.651.797l-.133 2.187H20.17l-.165-2.162a.88.88 0 00-.664-.787 8.788 8.788 0 01-2.28-.925.878.878 0 00-1.024.102l-1.642 1.454-1.982-1.982 1.412-1.646a.88.88 0 00.087-1.026 8.768 8.768 0 01-.96-2.266.88.88 0 00-.797-.652l-2.186-.133v-2.803l2.162-.165a.88.88 0 00.786-.664c.198-.796.51-1.563.925-2.28a.88.88 0 00-.102-1.024l-1.454-1.642 1.982-1.982 1.647 1.412a.88.88 0 001.026.087 8.78 8.78 0 012.4-.995.879.879 0 00.664-.787l.165-2.162h2.804l.133 2.187a.88.88 0 00.651.797c.798.212 1.56.535 2.267.96a.88.88 0 001.026-.086l1.645-1.413 1.982 1.982-1.453 1.642a.88.88 0 00-.102 1.024c.415.717.726 1.484.925 2.28a.88.88 0 00.786.664l2.163.165v2.803l-2.187.133a.879.879 0 00-.797.652 8.778 8.778 0 01-.96 2.266.88.88 0 00.086 1.026l1.413 1.646-1.983 1.982-1.642-1.454a.88.88 0 00-1.024-.102zm16.822 3.174a.88.88 0 00-.787.62 5.193 5.193 0 01-.42.99.88.88 0 00.1 1l1.27 1.478-1.019 1.02-1.467-1.3a.879.879 0 00-.998-.117 5.18 5.18 0 01-.918.381.88.88 0 00-.62.787l-.12 1.956h-1.44l-.148-1.944a.88.88 0 00-.634-.778 5.106 5.106 0 01-.996-.402.88.88 0 00-.997.117l-1.468 1.3-1.018-1.02 1.269-1.478a.88.88 0 00.101-1 5.175 5.175 0 01-.42-.99.88.88 0 00-.787-.62l-1.69-.103c.057-.044.114-.09.167-.143 0 0 2.682-3.074 2.694-3.096a.88.88 0 00-.12-.993l-.64-.723-.007-.008-.014-.015-.015-.017-.613-.715 1.007-1.008 1.479 1.27a.878.878 0 001 .1 5.113 5.113 0 011.069-.441.88.88 0 00.633-.779l.149-1.943h1.44l.119 1.956a.88.88 0 00.62.788c.344.105.677.247.99.42.322.178.72.138.999-.102l1.48-1.27 1.004 1.005a.877.877 0 00-.22.28l-1.066 1.202a.879.879 0 00-.117.998c.166.311.302.647.404.998a.88.88 0 00.777.632l.332.025c.31.6.737 1.142 1.268 1.584l-1.612.098zM57.34 54.824h-.28l-5.225-6.084a1.136 1.136 0 01-.274-.793l.33-7.605 3.73 1.53-1.397 5.636a2.56 2.56 0 00.22 1.809l2.896 5.507zm-8.323-7.599c-.5.462-.805 1.09-.861 1.774l-.458 5.825h-.41l-.78-7.514a.95.95 0 01.172-.653l3.38-4.698-.195 4.482-.848.784zM59.12 57.714h-3.56a.88.88 0 100 1.76h3.56a.88.88 0 100-1.76zm-10.476 0h-3.561a.88.88 0 100 1.76h3.561a.88.88 0 000-1.76z" fill="#42A3F6"/><path d="M38.452 16.088c3.169 0 6.084 1.434 8.005 3.845l-.656-.159a.88.88 0 00-.415 1.71l2.73.662c.44.137.997-.074 1.132-.631l.628-2.591a.88.88 0 00-1.71-.414l-.14.577a11.944 11.944 0 00-9.574-4.758.88.88 0 100 1.759zM4.459 11.494c.072.514.713.88 1.193.704l2.899-1.059a.88.88 0 10-.604-1.652l-.86.314a15.048 15.048 0 0113.027-7.456.88.88 0 000-1.76 16.8 16.8 0 00-14.655 8.52l-.341-.933a.88.88 0 00-1.652.603l.993 2.719z" fill="#42A3F6"/></svg>