<svg width="59" height="59" fill="none" xmlns="http://www.w3.org/2000/svg"><path d="M7.613 8.565V8.54c1.147-.87 1.903-2.234 1.903-3.782A4.763 4.763 0 004.758 0 4.763 4.763 0 000 4.758C0 6.306.755 7.671 1.903 8.54V59h1.903V9.42a4.754 4.754 0 001.904 0V59h1.903v-8.565H59V8.566H7.613zm29.5 1.903h14.87l-14.87 9.665v-9.665zm-9.516 0v9.665l-14.871-9.665h14.87zm-18.363 0l18.363 11.936v2.338h-1.622L7.613 12.806v-2.338h1.621zm13.25 14.274H7.613v-9.666l14.87 9.666zM4.758 7.612a2.858 2.858 0 01-2.855-2.854 2.858 2.858 0 012.855-2.855 2.858 2.858 0 012.855 2.855 2.858 2.858 0 01-2.855 2.855zm22.839 40.92h-14.87l14.87-9.665v9.665zm0-11.936L9.233 48.532h-1.62v-2.338l2.422-1.574-1.037-1.597-1.385.9v-9.665h14.87l-11.861 7.71 1.037 1.597 14.317-9.307h1.62v2.338zm9.516 11.936v-9.665l14.87 9.665h-14.87zm19.984 0h-1.62L37.112 36.596v-2.338h1.62l18.364 11.936v2.338zm0-16.177h-1.904v1.903h1.904v9.666l-14.87-9.666H53.29v-1.903H35.21v16.177H29.5V32.355H7.613v-5.71H29.5V10.468h5.71v16.177h21.887v5.71zm0-7.613H42.226l14.87-9.666v9.666zm0-11.936L38.734 24.742h-1.621v-2.338l18.362-11.936h1.622v2.338z" fill="#42A3F6"/></svg>