<svg width="67" height="61" fill="none" xmlns="http://www.w3.org/2000/svg"><path d="M8.452 46.87h-.458a1.01 1.01 0 110-2.02h.458a1.01 1.01 0 110 2.02z" fill="#42A3F6"/><path d="M62.018 52.783H4.982A4.713 4.713 0 01.17 48.447V5.67A4.954 4.954 0 014.982.383h57.036a4.817 4.817 0 014.812 4.812v42.777a4.817 4.817 0 01-4.812 4.811zM4.982 2.403A2.924 2.924 0 002.19 5.67v42.777a2.76 2.76 0 002.792 2.316h57.036a2.794 2.794 0 002.792-2.791V5.195a2.795 2.795 0 00-2.792-2.792H4.982z" fill="#42A3F6"/><path d="M44.246 60.617H22.754a1.01 1.01 0 01-.9-1.47l3.992-7.833a1.01 1.01 0 01.9-.55h13.509a1.01 1.01 0 01.9.55l3.991 7.834a1.008 1.008 0 01-.9 1.469zm-19.845-2.02h18.198l-2.962-5.814H27.365L24.4 58.597z" fill="#42A3F6"/><path d="M46.801 60.617H20.199a1.01 1.01 0 110-2.02h26.602a1.01 1.01 0 110 2.02zM65.82 41.315H1.18a1.01 1.01 0 110-2.02h64.64a1.01 1.01 0 110 2.02zm-35.332-9.006a1.013 1.013 0 01-.963-1.317L35.55 12.05a1.01 1.01 0 011.925.613l-6.025 18.94a1.01 1.01 0 01-.962.705zm11.409-4.807a1.01 1.01 0 01-.658-1.776l4.541-3.896-4.54-3.896a1.01 1.01 0 111.315-1.534l5.434 4.663a1.01 1.01 0 010 1.534l-5.434 4.663a1.011 1.011 0 01-.658.242zm-16.793 0c-.242 0-.475-.085-.659-.242l-5.434-4.664a1.01 1.01 0 010-1.533l5.434-4.662a1.01 1.01 0 011.316 1.533L21.22 21.83l4.54 3.896a1.01 1.01 0 01-.656 1.776z" fill="#42A3F6"/></svg>