<svg width="69" height="39" fill="none" xmlns="http://www.w3.org/2000/svg"><path d="M1 2a1 1 0 011-1h9.929a1 1 0 011 1v11.321a1 1 0 01-1 1H2a1 1 0 01-1-1V2zm0 18.804a1 1 0 011-1h9.929a1 1 0 011 1V37a1 1 0 01-1 1H2a1 1 0 01-1-1V20.804zM17.714 2a1 1 0 011-1h9.929a1 1 0 011 1v22.464a1 1 0 01-1 1h-9.929a1 1 0 01-1-1V2zm0 28.554a1 1 0 011-1h9.929a1 1 0 011 1V37a1 1 0 01-1 1h-9.929a1 1 0 01-1-1v-6.446zM39 2a1 1 0 011-1h10a1 1 0 011 1v35a1 1 0 01-1 1H40a1 1 0 01-1-1V2zm17 0a1 1 0 011-1h10a1 1 0 011 1v35a1 1 0 01-1 1H57a1 1 0 01-1-1V2z" stroke="#7798CE" stroke-width="2"/></svg>