<svg width="33" height="32" fill="none" xmlns="http://www.w3.org/2000/svg"><path d="M16.5 0C7.384 0 0 7.346 0 16.406c0 7.25 4.727 13.398 11.282 15.566.825.154 1.127-.354 1.127-.79 0-.389-.013-1.421-.02-2.789-4.59.99-5.558-2.2-5.558-2.2-.75-1.894-1.836-2.4-1.836-2.4-1.494-1.018.116-.997.116-.997 1.657.114 2.527 1.69 2.527 1.69 1.471 2.51 3.863 1.784 4.806 1.365.148-1.061.573-1.783 1.045-2.194-3.665-.41-7.516-1.82-7.516-8.107 0-1.79.64-3.254 1.698-4.402-.186-.414-.742-2.082.144-4.342 0 0 1.382-.44 4.538 1.682a15.931 15.931 0 014.125-.554c1.402.009 2.805.19 4.125.554 3.135-2.121 4.517-1.682 4.517-1.682.887 2.26.33 3.928.165 4.342 1.052 1.148 1.691 2.612 1.691 4.402 0 6.303-3.857 7.69-7.528 8.093.578.493 1.114 1.499 1.114 3.036 0 2.196-.02 3.96-.02 4.493 0 .43.288.943 1.133.779C28.277 29.797 33 23.645 33 16.406 33 7.346 25.612 0 16.5 0z" fill="#464646"/></svg>