<svg width="27" height="60" fill="none" xmlns="http://www.w3.org/2000/svg"><path d="M20.701 58.215l.572-9.463 1.578-2.677s-3.592 1.46-9.607 1.46c-6.016 0-9.554-1.433-9.554-1.433l1.77 2.92.625 9.194C6.085 59.2 9.357 60 13.393 60s7.308-.799 7.308-1.785z" fill="#42A3F6"/><path d="M20.701 58.215l.572-9.463 1.578-2.677s-3.592 1.46-9.607 1.46c-6.016 0-9.554-1.433-9.554-1.433l1.77 2.92.625 9.194C6.085 59.2 9.357 60 13.393 60s7.308-.799 7.308-1.785zm-1.803-44.194l1.2-4.711 6.645-6.947L24.99.881l-7.035 7.4-1.393 5.63a93.983 93.983 0 00-3.147-.053c-7.41 0-13.416.84-13.416 1.874 0 1.035 6.007 1.873 13.416 1.873 7.41 0 13.416-.838 13.416-1.873 0-.762-3.258-1.418-7.934-1.71z" fill="#42A3F6"/><path d="M18.898 14.021l1.2-4.712 6.645-6.946L24.99.881l-7.035 7.4-1.393 5.63a93.983 93.983 0 00-3.147-.053c-7.41 0-13.416.84-13.416 1.874 0 1.034 6.007 1.873 13.416 1.873 7.41 0 13.416-.839 13.416-1.873 0-.762-3.258-1.418-7.934-1.71z" fill="#42A3F6"/><path d="M18.2 16.66s-.26.058-1.025.061c-.764.004-1.307-.005-1.524-.2a.338.338 0 01-.09-.228c.001-.134.098-.213.22-.263l.116.18c-.05.018-.08.038-.08.06 0 .102.782.172 1.38.164.6-.007 1.322-.056 1.323-.157 0-.03-.055-.059-.15-.081l.115-.18c.155.048.29.14.29.3-.001.273-.35.314-.575.344z" fill="#45465A"/><path d="M18.2 16.66s-.26.058-1.025.061c-.764.004-1.307-.005-1.524-.2a.338.338 0 01-.09-.228c.001-.134.098-.213.22-.263l.116.18c-.05.018-.08.038-.08.06 0 .102.782.172 1.38.164.6-.007 1.322-.056 1.323-.157 0-.03-.055-.059-.15-.081l.115-.18c.155.048.29.14.29.3-.001.273-.35.314-.575.344z" fill="#45465A"/><path d="M26.73 2.377c.167-.192-.087-.682-.566-1.095-.48-.413-1.005-.593-1.173-.4-.167.19.087.681.567 1.094.48.413 1.005.593 1.172.4z" fill="#30313E"/><path d="M26.73 2.377c.167-.192-.087-.682-.566-1.095-.48-.413-1.005-.593-1.173-.4-.167.19.087.681.567 1.094.48.413 1.005.593 1.172.4z" fill="#30313E"/><path d="M20.382 35.1c-.158-1.506 3.314-3.686 2.423-3.756-1.918.11-2.873 2.233-3.838 4.458-.354.815-1.563 4.292-2.357 3.864-.794-.428 1.029-3.287 1.54-4.985-.59.43-2.751 2.098-3.308.536-.896.755-2.809 1.164-2.593-.82-.476.838-1.546 2.009-2.829 1.522-1.685-.638.977-5.971 1.639-5.702.662.268-.134 1.483-.342 1.955-.459 1.039-.988 2.344-.634 2.61.605.459 2.254-1.73 2.29-1.779.31-.405 1.188-3.052 1.896-2.748.708.304-1.766 3.8-.841 4.493.186.14.95-.086 1.414-.585.3-.323.197-1.038 1.198-3.41 1.002-2.373 1.895-5.328 2.581-5.103.687.225.121 1.742-.125 2.307-1.157 2.653-3.156 7.037-2.213 6.705.943-.332 1.434-.351 2.357-1.425.924-1.073.881-2.841 1.496-2.804.616.038.513.605.363 1.037.606-.689 2.872-2.14 3.419-.703.647 1.7-3.242 4.157-2.272 4.031.945-.122 2.477-1.085 3.131-1.962l1.8-16.077s-1.811 1.49-13.335 1.49C1.718 18.248.094 16.79.094 16.79l1.532 14.675c.814-2.297 2.746-6.943 5.79-6.787 1.385.071 3.234 2.72 1.65 2.81-.67.038-.738-1.322-1.532-1.522-.573-.144-1.37.319-1.886.82-1.028 1-3.238 4.943-2.946 6.908.372 2.507 3.481-.87 4.007-1.873.37-.706.621-2.799 1.431-2.58.81.22-.07 2.38-.658 4.29-.66 2.143-1.007 4.405-1.834 4.145-.827-.26.52-3.028.472-3.513-.778.712-2.21 2.516-4.042 1.623L3.03 44.9s2.53 1.986 10.15 1.986c7.62 0 10.243-1.955 10.243-1.955l1.182-10.555c-.967.936-4.027 2.597-4.223.724z" fill="#42A3F6"/><path d="M20.382 35.1c-.158-1.506 3.314-3.686 2.423-3.756-1.918.11-2.873 2.233-3.838 4.458-.354.815-1.563 4.292-2.357 3.864-.794-.428 1.029-3.287 1.54-4.985-.59.43-2.751 2.098-3.308.536-.896.755-2.809 1.164-2.593-.82-.476.838-1.546 2.009-2.829 1.522-1.685-.638.977-5.971 1.639-5.702.662.268-.134 1.483-.342 1.955-.459 1.039-.988 2.344-.634 2.61.605.459 2.254-1.73 2.29-1.779.31-.405 1.188-3.052 1.896-2.748.708.304-1.766 3.8-.841 4.493.186.14.95-.086 1.414-.585.3-.323.197-1.038 1.198-3.41 1.002-2.373 1.895-5.328 2.581-5.103.687.225.121 1.742-.125 2.307-1.157 2.653-3.156 7.037-2.213 6.705.943-.332 1.434-.351 2.357-1.425.924-1.073.881-2.841 1.496-2.804.616.038.513.605.363 1.037.606-.689 2.872-2.14 3.419-.703.647 1.7-3.242 4.157-2.272 4.031.945-.122 2.477-1.085 3.131-1.962l1.8-16.077s-1.811 1.49-13.335 1.49C1.718 18.248.094 16.79.094 16.79l1.532 14.675c.814-2.297 2.746-6.943 5.79-6.787 1.385.071 3.234 2.72 1.65 2.81-.67.038-.738-1.322-1.532-1.522-.573-.144-1.37.319-1.886.82-1.028 1-3.238 4.943-2.946 6.908.372 2.507 3.481-.87 4.007-1.873.37-.706.621-2.799 1.431-2.58.81.22-.07 2.38-.658 4.29-.66 2.143-1.007 4.405-1.834 4.145-.827-.26.52-3.028.472-3.513-.778.712-2.21 2.516-4.042 1.623L3.03 44.9s2.53 1.986 10.15 1.986c7.62 0 10.243-1.955 10.243-1.955l1.182-10.555c-.967.936-4.027 2.597-4.223.724z" fill="#42A3F6"/></svg>