<svg width="46" height="58" fill="none" xmlns="http://www.w3.org/2000/svg"><path d="M22.9 0L0 2.398v41.98L22.9 58l22.902-13.623V2.397L23.137.03 22.9 0zm19.9 42.67L22.9 54.516 3.003 42.67v-17.2l19.814 11.79.029 2.142-13.594-8.1-.018 2.086 13.65 8.203.038 2.19-13.65-8.118-.018 2.077 13.65 8.203 13.782-8.25v-2.086l-.018.009v-6.78l6.135-3.662L42.8 42.67zm-.009-19.722l-7.958 4.693-11.99-7.138-.018 2.077 10.242 6.088-.085.056-.227.133-1.453.859-8.46-5.032-.017 2.069 6.673 3.974-1.576 1.057-.038.018-5.041-2.974-.018 2.077 3.304 1.954-3.37 2.02L3.04 23.156l19.75-11.867 20.002 11.66zm.01-2.086l-20.014-11.8L3 20.845V5.097L22.9 3.01l19.908 2.086v15.756l-.008.009z" fill="#fff"/></svg>