<svg width="34" height="34" fill="none" xmlns="http://www.w3.org/2000/svg"><path d="M4.143 18.076H2.014A1.07 1.07 0 01.95 17a1.07 1.07 0 011.064-1.076h2.129A1.07 1.07 0 015.207 17a1.07 1.07 0 01-1.064 1.076zm28.377 0h-2.13A1.07 1.07 0 0129.327 17a1.07 1.07 0 011.064-1.076h2.128A1.07 1.07 0 0133.584 17a1.07 1.07 0 01-1.065 1.076zM17.267 33.5a1.07 1.07 0 01-1.064-1.076v-2.152a1.07 1.07 0 011.064-1.076 1.07 1.07 0 011.064 1.076v2.152a1.07 1.07 0 01-1.064 1.076zm0-28.696a1.07 1.07 0 01-1.064-1.076V1.576A1.07 1.07 0 0117.267.5a1.07 1.07 0 011.064 1.076v2.152a1.07 1.07 0 01-1.064 1.076zm7.627 26.63c-.367 0-.725-.193-.922-.538l-1.064-1.864a1.082 1.082 0 01.39-1.47c.51-.298 1.16-.12 1.453.394l1.064 1.864c.294.514.12 1.172-.39 1.47-.167.098-.35.144-.53.144zM10.706 6.583c-.368 0-.726-.193-.923-.539L8.72 4.18a1.082 1.082 0 01.39-1.47c.51-.296 1.16-.12 1.453.394l1.064 1.864c.294.515.12 1.173-.39 1.47-.167.098-.35.145-.53.145zm19.769 19.205c-.18 0-.363-.046-.53-.144L28.1 24.568a1.082 1.082 0 01-.39-1.47 1.057 1.057 0 011.454-.394l1.843 1.076c.51.297.684.955.39 1.47a1.062 1.062 0 01-.923.538zM5.9 11.44c-.18 0-.364-.046-.531-.144L3.526 10.22a1.082 1.082 0 01-.39-1.47 1.058 1.058 0 011.454-.394l1.843 1.076c.509.297.683.955.39 1.47a1.062 1.062 0 01-.923.539zm22.734 0c-.368 0-.725-.192-.922-.538a1.082 1.082 0 01.389-1.47l1.843-1.076a1.057 1.057 0 011.453.394c.295.515.12 1.173-.389 1.47l-1.843 1.076a1.05 1.05 0 01-.531.145zM4.059 25.788a1.06 1.06 0 01-.923-.538 1.082 1.082 0 01.39-1.47l1.843-1.076c.51-.297 1.16-.12 1.453.394.294.514.12 1.172-.389 1.47L4.59 25.642a1.04 1.04 0 01-.531.145zM23.828 6.583c-.18 0-.363-.047-.531-.145a1.082 1.082 0 01-.39-1.47l1.065-1.864c.294-.513.945-.69 1.453-.393.509.297.684.955.39 1.47L24.75 6.044a1.062 1.062 0 01-.922.539zM9.64 31.434c-.181 0-.364-.047-.532-.145a1.082 1.082 0 01-.389-1.47l1.064-1.863a1.057 1.057 0 011.454-.394c.509.297.683.955.389 1.47l-1.064 1.864a1.061 1.061 0 01-.923.538z" fill="#FFB319"/><path fill-rule="evenodd" clip-rule="evenodd" d="M7.335 17c0 5.538 4.455 10.044 9.932 10.044 5.476 0 9.932-4.506 9.932-10.044S22.743 6.957 17.267 6.957c-5.477 0-9.932 4.505-9.932 10.043zm8.851-4.68c.589 0 1.064-.48 1.064-1.076 0-.595-.475-1.076-1.064-1.076-3.129 0-5.675 2.575-5.675 5.739 0 .596.475 1.076 1.064 1.076.589 0 1.064-.48 1.064-1.076 0-1.98 1.589-3.587 3.547-3.587z" fill="#FFB319"/></svg>