<svg width="32" height="32" fill="none" xmlns="http://www.w3.org/2000/svg"><path d="M15.938 0C7.149 0 0 7.15 0 15.938S7.15 32 15.938 32 32 24.726 32 15.937C32 7.15 24.726 0 15.937 0zm6.687 20.625a3.743 3.743 0 01-3.064-1.6c-.86.973-2.101 1.6-3.498 1.6a4.693 4.693 0 01-4.688-4.688 4.693 4.693 0 014.688-4.687c1.059 0 2.026.367 2.812.961v-.024a.937.937 0 111.875 0v4.688c0 1.034.841 1.875 1.875 1.875a1.877 1.877 0 001.875-1.875c0-6.274-4.152-9.375-8.438-9.375-4.652 0-8.437 3.785-8.437 8.438 0 4.652 3.785 8.437 8.438 8.437 1.875 0 3.648-.6 5.128-1.738.99-.755 2.122.736 1.143 1.487a10.212 10.212 0 01-6.271 2.126c-5.687 0-10.313-4.626-10.313-10.313 0-5.686 4.626-10.312 10.313-10.312 5.18 0 10.312 3.82 10.312 11.25a3.754 3.754 0 01-3.75 3.75z" fill="#464646"/></svg>