<svg width="56" height="56" fill="none" xmlns="http://www.w3.org/2000/svg"><g clip-path="url(#clip0_42_1121)"><path d="M54.783 21.913a1.217 1.217 0 000-2.435H51.13V7.304h3.653a1.217 1.217 0 000-2.434H51.13V1.217a1.217 1.217 0 00-2.434 0V4.87H36.522V1.217a1.217 1.217 0 00-2.435 0V4.87H21.913V1.217a1.217 1.217 0 00-2.435 0V4.87H7.304V1.217a1.217 1.217 0 00-2.434 0V4.87H1.217a1.217 1.217 0 100 2.434H4.87v12.174H1.217a1.217 1.217 0 100 2.435H4.87v12.174H1.217a1.217 1.217 0 100 2.435H4.87v12.174H1.217a1.217 1.217 0 100 2.434H4.87v3.653a1.217 1.217 0 002.434 0V51.13h12.174v3.653a1.217 1.217 0 002.435 0V51.13h12.174v3.653a1.217 1.217 0 002.435 0V51.13h12.174v3.653a1.217 1.217 0 002.434 0V51.13h3.653a1.217 1.217 0 000-2.434H51.13V36.522h3.653a1.217 1.217 0 000-2.435H51.13V21.913h3.653zM48.696 7.304v12.174H36.522V7.304h12.174zm-14.609 0v12.174H21.913V7.304h12.174zm0 14.609v12.174H21.913V21.913h12.174zM7.304 7.304h12.174v12.174H7.304V7.304zm0 14.609h12.174v12.174H7.304V21.913zm0 26.783V36.522h12.174v12.174H7.304zm14.609 0V36.522h12.174v12.174H21.913zm26.783 0H36.522V36.522h12.174v12.174zm0-14.609H36.522V21.913h12.174v12.174z" fill="#455A64"/><path d="M6.087 56a1.217 1.217 0 01-1.217-1.217V1.217a1.218 1.218 0 012.434 0v53.566c0 .672-.545 1.217-1.217 1.217zm14.609 0a1.217 1.217 0 01-1.218-1.217V1.217a1.218 1.218 0 012.435 0v53.566c0 .672-.545 1.217-1.217 1.217zm14.608 0a1.217 1.217 0 01-1.217-1.217V1.217a1.218 1.218 0 012.435 0v53.566c0 .672-.545 1.217-1.218 1.217zm14.609 0a1.217 1.217 0 01-1.217-1.217V1.217a1.217 1.217 0 012.434 0v53.566c0 .672-.545 1.217-1.217 1.217z" fill="#7798CE"/><path d="M54.783 51.13H1.217a1.217 1.217 0 010-2.434h53.566a1.217 1.217 0 010 2.434zm0-14.608H1.217a1.217 1.217 0 010-2.435h53.566a1.217 1.217 0 010 2.435zm0-14.609H1.217a1.217 1.217 0 010-2.435h53.566a1.217 1.217 0 010 2.435zm0-14.609H1.217a1.217 1.217 0 010-2.435h53.566a1.217 1.217 0 010 2.435z" fill="#7798CE"/></g><defs><clipPath id="clip0_42_1121"><path fill="#fff" d="M0 0h56v56H0z"/></clipPath></defs></svg>