<svg width="56" height="56" fill="none" xmlns="http://www.w3.org/2000/svg"><path d="M49.192 11.767l-1.314-1.314-9.176-9.178H38.7L37.956.53a1.803 1.803 0 00-1.28-.53H8.653C7.508 0 6.276.884 6.276 2.825V54.07c0 .808.812 1.595 1.773 1.843.049.014.096.032.146.042.15.03.304.046.459.046h38.692c.155 0 .308-.016.459-.046.05-.01.097-.028.147-.042.96-.248 1.772-1.035 1.772-1.843V13.496c0-.74-.09-1.288-.532-1.73zM38.138 3.442l8.144 8.144h-8.144V3.442zM8.654 54.07c-.069 0-.13-.024-.191-.047a.444.444 0 01-.256-.4V39.586h39.586v14.036a.444.444 0 01-.256.4c-.06.023-.122.047-.19.047H8.653zm-.447-16.414V2.825c0-.21.032-.894.447-.894h27.609a1.49 1.49 0 00-.056.378v10.996a2.873 2.873 0 00-1.931-.753.965.965 0 100 1.93c.533 0 .965.434.965.966v3.862a3.84 3.84 0 001.335 2.897 3.838 3.838 0 00-1.335 2.896v3.862a.967.967 0 01-.965.966.965.965 0 100 1.931 2.9 2.9 0 002.896-2.896v-3.863c0-1.065.867-1.93 1.931-1.93a.965.965 0 100-1.932 1.933 1.933 0 01-1.93-1.93v-3.863c0-.744-.291-1.417-.754-1.93h10.997c.13 0 .256-.025.377-.057l.001.035v24.16H8.207z" fill="#7798CE"/><path d="M19.343 44.37c.233-.296.497-.504.792-.627.294-.124.605-.185.93-.185.291 0 .57.058.839.172.268.114.512.3.733.554l1.095-.977a3.601 3.601 0 00-1.227-.791 4.084 4.084 0 00-1.478-.264c-.573 0-1.105.107-1.597.323-.492.217-.922.53-1.287.945-.365.414-.652.93-.858 1.55-.207.621-.31 1.34-.31 2.158 0 .818.103 1.54.31 2.165.206.625.493 1.144.858 1.557.365.414.792.726 1.28.938a3.996 3.996 0 001.604.317c.528 0 1.021-.088 1.478-.264.457-.176.866-.44 1.227-.792l-1.095-.963c-.23.255-.482.44-.76.554a2.323 2.323 0 01-.89.172c-.317 0-.62-.068-.905-.205a2.109 2.109 0 01-.766-.647c-.224-.295-.4-.675-.528-1.142-.128-.467-.196-1.03-.205-1.69.009-.678.08-1.25.212-1.715.132-.467.315-.848.548-1.144zm11.102 3.002a5.211 5.211 0 00-.984-.56 12.348 12.348 0 01-.977-.476c-.3-.163-.55-.351-.752-.568-.203-.216-.303-.5-.303-.851 0-.141.034-.289.105-.442.07-.154.167-.293.29-.416.124-.124.264-.226.423-.31.16-.085.326-.135.502-.152.317-.026.577-.03.78-.014.202.018.364.049.488.093s.218.088.284.132a1.5 1.5 0 00.179.106c.008-.009.034-.053.079-.133a9.08 9.08 0 00.158-.297l.198-.382a8.23 8.23 0 00.184-.377c-.256-.167-.589-.289-1.003-.363a6.935 6.935 0 00-1.227-.112c-.396 0-.772.06-1.129.184a2.843 2.843 0 00-.937.535c-.27.233-.482.517-.64.852a2.654 2.654 0 00-.238 1.148c0 .475.1.87.303 1.188.203.316.458.591.766.824.308.233.638.435.99.607.351.172.68.343.983.515.305.172.557.363.76.575.202.211.303.466.303.765 0 .494-.143.865-.43 1.115-.285.25-.697.377-1.233.377-.177 0-.365-.019-.568-.053a5.731 5.731 0 01-.607-.14 10.985 10.985 0 01-.587-.184 2.812 2.812 0 01-.468-.204l-.277 1.135c.15.132.328.244.534.337.207.093.424.165.654.218.23.053.456.091.68.112.224.022.442.033.653.033.494 0 .933-.074 1.32-.224.387-.15.713-.35.977-.6a2.69 2.69 0 00.614-.871c.146-.33.219-.671.219-1.024 0-.52-.1-.944-.303-1.273a2.86 2.86 0 00-.763-.825zm7.155 0a5.215 5.215 0 00-.985-.56 12.348 12.348 0 01-.977-.476c-.3-.163-.55-.351-.752-.568-.203-.216-.303-.5-.303-.851 0-.141.035-.289.105-.442.07-.154.167-.293.29-.416.124-.124.264-.226.424-.31.159-.085.325-.135.502-.152a5.01 5.01 0 01.779-.014c.203.018.365.049.488.093.124.044.219.088.284.132a1.5 1.5 0 00.179.106c.009-.009.035-.053.08-.133a9.08 9.08 0 00.157-.297l.198-.382c.07-.136.133-.262.185-.377-.256-.167-.59-.289-1.003-.363a6.935 6.935 0 00-1.228-.112c-.395 0-.772.06-1.128.184a2.844 2.844 0 00-.938.535c-.27.233-.482.517-.64.852a2.654 2.654 0 00-.237 1.148c0 .475.1.87.303 1.188.203.316.457.591.765.824.308.233.639.435.99.607.352.172.68.343.984.515.304.172.556.363.759.575.203.211.303.466.303.765 0 .494-.143.865-.429 1.115-.286.25-.698.377-1.234.377a3.44 3.44 0 01-.567-.053 5.731 5.731 0 01-.608-.14 10.985 10.985 0 01-.587-.184 2.815 2.815 0 01-.468-.204l-.277 1.135c.15.132.328.244.535.337.206.093.424.165.654.218.23.053.455.091.68.112.223.022.441.033.653.033.493 0 .932-.074 1.32-.224.387-.15.712-.35.977-.6.264-.252.468-.542.614-.871.146-.33.218-.671.218-1.024 0-.52-.1-.944-.303-1.273a2.86 2.86 0 00-.763-.825zM19.793 19.31v-3.862c0-.532.433-.965.966-.965a.965.965 0 100-1.931 2.9 2.9 0 00-2.897 2.896v3.862a1.933 1.933 0 01-1.93 1.931.965.965 0 100 1.931c1.064 0 1.93.866 1.93 1.931v3.862a2.9 2.9 0 002.897 2.897.965.965 0 100-1.931.966.966 0 01-.966-.966v-3.862a3.838 3.838 0 00-1.334-2.896 3.838 3.838 0 001.334-2.897z" fill="#7798CE"/></svg>