<svg width="37" height="36" fill="none" xmlns="http://www.w3.org/2000/svg"><path d="M32.11 22.706c-1.962 4.36-6.307 7.37-11.339 7.352-6.867-.024-12.402-5.66-12.379-12.603a12.541 12.541 0 017.349-11.414 12.552 12.552 0 00-1.125 5.164c-.023 6.928 5.512 12.579 12.379 12.603 1.82.006 3.545-.388 5.114-1.102z" fill="#999CA0"/><ellipse rx=".742" ry=".75" transform="matrix(1 .0035 -.00334 1 6.2 8.258)" fill="#999CA0"/><ellipse rx="1.483" ry="1.5" transform="matrix(1 .0035 -.00334 1 21.771 9.061)" fill="#999CA0"/><ellipse rx=".742" ry=".75" transform="matrix(1 .0035 -.00334 1 28.424 15.835)" fill="#999CA0"/><ellipse rx="1.483" ry="1.5" transform="matrix(1 .00353 -.0033 1 5.394 27.005)" fill="#999CA0"/></svg>