<svg width="62" height="43" fill="none" xmlns="http://www.w3.org/2000/svg"><path d="M58.5 13H58V3.5A3.504 3.504 0 0054.5 0h-47A3.504 3.504 0 004 3.5V19h-.5A3.504 3.504 0 000 22.5v17A3.504 3.504 0 003.5 43h9a3.504 3.504 0 003.5-3.5V36h8.719l-.5 2H22a1 1 0 00-1 1v3a1 1 0 001 1h18a1 1 0 001-1v-3a1 1 0 00-1-1h-2.219l-.5-2H42v3.5a3.504 3.504 0 003.5 3.5h13a3.504 3.504 0 003.5-3.5v-23a3.504 3.504 0 00-3.5-3.5zM14 39.5a1.501 1.501 0 01-1.5 1.5h-9A1.501 1.501 0 012 39.5v-17A1.501 1.501 0 013.5 21h.779l.772 2.316A1 1 0 006 24h4a1 1 0 00.949-.684L11.72 21h.779a1.501 1.501 0 011.5 1.5v17zM6.388 21h3.225l-.334 1H6.72l-.333-1zM39 40v1H23v-1h16zm-12.719-2l.5-2h8.438l.5 2H26.28zM42 34H16v-4h26v4zm0-17.5V28H16v-5.5a3.504 3.504 0 00-3.5-3.5H6V3.5A1.501 1.501 0 017.5 2h47A1.501 1.501 0 0156 3.5V13H45.5a3.504 3.504 0 00-3.5 3.5zM53.612 15l-.333 1H50.72l-.333-1h3.224zM60 39.5a1.501 1.501 0 01-1.5 1.5h-13a1.501 1.501 0 01-1.5-1.5v-23a1.501 1.501 0 011.5-1.5h2.779l.772 2.316A1 1 0 0050 18h4a1 1 0 00.949-.684L55.72 15h2.78a1.501 1.501 0 011.5 1.5v23z" fill="#7798CE"/><path d="M54 38h-4a1 1 0 000 2h4a1 1 0 000-2zm-44 0H6a1 1 0 000 2h4a1 1 0 000-2zm22-7h-2a1 1 0 000 2h2a1 1 0 000-2z" fill="#7798CE"/></svg>