<svg width="55" height="55" fill="none" xmlns="http://www.w3.org/2000/svg"><circle cx="27.5" cy="27.5" r="26.5" stroke="#7798CE" stroke-width="2"/><path d="M36.386 35.587c0-1.655-.58-2.96-1.743-3.917-1.162-.97-3.288-1.887-6.378-2.748-3.09-.875-5.346-1.825-6.767-2.85-2.024-1.45-3.036-3.35-3.036-5.702 0-2.283.937-4.136 2.81-5.558 1.887-1.435 4.293-2.153 7.219-2.153 1.982 0 3.753.383 5.311 1.148 1.572.766 2.79 1.832 3.65 3.2.862 1.367 1.293 2.891 1.293 4.573h-2.543c0-2.037-.698-3.67-2.092-4.901-1.395-1.245-3.268-1.867-5.62-1.867-2.282 0-4.1.513-5.454 1.539-1.354 1.011-2.03 2.337-2.03 3.978 0 1.518.608 2.755 1.825 3.712 1.216.957 3.165 1.805 5.844 2.543 2.68.724 4.71 1.483 6.091 2.276 1.381.78 2.42 1.716 3.117 2.81.698 1.093 1.046 2.386 1.046 3.876 0 2.351-.943 4.238-2.83 5.66-1.873 1.422-4.347 2.133-7.424 2.133-2.105 0-4.04-.376-5.803-1.128-1.75-.752-3.083-1.805-4-3.158-.902-1.354-1.353-2.906-1.353-4.656h2.523c0 2.106.786 3.767 2.358 4.984 1.572 1.216 3.664 1.825 6.275 1.825 2.325 0 4.19-.513 5.599-1.538 1.408-1.026 2.112-2.386 2.112-4.081z" fill="#7798CE"/></svg>