<svg width="32" height="33" fill="none" xmlns="http://www.w3.org/2000/svg"><path d="M29.899 21.706l-3.118-2.24a11.352 11.352 0 00-.008-5.936l3.127-2.211-2.496-4.363-3.479 1.607a11.118 11.118 0 00-5.097-2.96l-.331-3.841h-4.994l-.332 3.84a11.116 11.116 0 00-5.095 2.963l-3.48-1.607L2.1 11.32l3.127 2.211a11.358 11.358 0 00-.01 5.936L2.1 21.706l2.495 4.342 3.48-1.61A11.115 11.115 0 0013.17 27.4l.332 3.84h4.994l.331-3.84a11.118 11.118 0 005.096-2.961l3.48 1.609 2.496-4.34-.001-.002zM19.445 0c.221 0 .434.086.594.24a.87.87 0 01.265.588l.306 3.532a12.772 12.772 0 013.511 2.044l3.18-1.498a.852.852 0 011.137.339l3.446 6.022a.875.875 0 01-.279 1.164l-2.877 2.034a13.03 13.03 0 01.002 4.094l2.875 2.03a.876.876 0 01.278 1.166l-3.445 6a.852.852 0 01-1.138.338l-3.179-1.497a12.767 12.767 0 01-3.51 2.046l-.307 3.532a.871.871 0 01-.265.587.854.854 0 01-.594.239h-6.89a.854.854 0 01-.594-.24.871.871 0 01-.266-.586l-.306-3.532a12.777 12.777 0 01-3.51-2.046l-3.18 1.498a.852.852 0 01-1.14-.337L.117 21.754a.875.875 0 01.278-1.164l2.875-2.033a13.056 13.056 0 010-4.094L.396 12.431a.875.875 0 01-.278-1.163l3.44-6.023a.852.852 0 011.14-.338l3.178 1.497a12.773 12.773 0 013.511-2.044l.306-3.532a.872.872 0 01.265-.588.855.855 0 01.594-.24h6.893zM16 10.439c1.595 0 3.125.64 4.253 1.779a6.105 6.105 0 011.761 4.295 6.105 6.105 0 01-1.761 4.295A5.985 5.985 0 0116 22.588a5.985 5.985 0 01-4.253-1.78 6.105 6.105 0 01-1.762-4.295c0-1.61.634-3.156 1.762-4.295A5.985 5.985 0 0116 10.438zm0 1.735c-1.14 0-2.232.457-3.038 1.271a4.36 4.36 0 00-1.259 3.068 4.36 4.36 0 001.259 3.068A4.275 4.275 0 0016 20.85c1.14 0 2.232-.456 3.038-1.27a4.36 4.36 0 001.258-3.068 4.36 4.36 0 00-1.258-3.068A4.275 4.275 0 0016 12.175z" fill="#fff"/></svg>