<svg width="61" height="61" viewBox="0 0 61 61" fill="none" xmlns="http://www.w3.org/2000/svg">
<path d="M30.5 23.5113C36.9819 23.5113 42.2556 18.2378 42.2556 11.7557C42.2556 5.27365 36.9819 0 30.5 0C24.018 0 18.7444 5.27351 18.7444 11.7556C18.7444 18.2377 24.018 23.5113 30.5 23.5113ZM30.5 1.94681C35.9086 1.94681 40.3088 6.34698 40.3088 11.7556C40.3088 17.1642 35.9086 21.5645 30.5 21.5645C25.0914 21.5645 20.6912 17.1644 20.6912 11.7557C20.6912 6.34712 25.0914 1.94681 30.5 1.94681Z" fill="#7798CE"/>
<path d="M26.2674 27.5027C25.7393 27.603 25.3925 28.1126 25.4929 28.6408C25.5816 29.1075 25.9898 29.4326 26.448 29.4326C26.5083 29.4326 26.5696 29.427 26.6308 29.4154C29.1562 28.9354 31.8213 28.934 34.347 29.4112C34.8744 29.5109 35.3843 29.1638 35.4842 28.6355C35.5841 28.1072 35.2368 27.5981 34.7084 27.4983C31.9443 26.9759 29.0311 26.9774 26.2674 27.5027Z" fill="#7798CE"/>
<path d="M30.5 17.9454C32.5727 17.9454 34.5055 16.917 35.6704 15.1943C35.9715 14.749 35.8547 14.1438 35.4093 13.8427C34.9639 13.5416 34.3588 13.6585 34.0577 14.1038C33.2554 15.2904 31.9254 15.9986 30.5 15.9986C29.0746 15.9986 27.7446 15.2902 26.9422 14.1037C26.6413 13.6584 26.0362 13.5415 25.5906 13.8426C25.1452 14.1437 25.0284 14.7489 25.3295 15.1942C26.4945 16.917 28.4273 17.9454 30.5 17.9454Z" fill="#7798CE"/>
<path d="M36.3242 33.404C36.3242 38.1184 40.1597 41.9537 44.874 41.9537C49.5882 41.9537 53.4237 38.1184 53.4237 33.404C53.4237 28.6896 49.5882 24.8542 44.874 24.8542C40.1597 24.8542 36.3242 28.6896 36.3242 33.404ZM44.874 26.8011C48.5149 26.8011 51.4769 29.7631 51.4769 33.404C51.4769 37.0449 48.5149 40.0069 44.874 40.0069C41.233 40.0069 38.271 37.0449 38.271 33.404C38.271 29.7631 41.233 26.8011 44.874 26.8011Z" fill="#7798CE"/>
<path d="M44.874 38.0428C46.4266 38.0428 47.8744 37.2725 48.7468 35.9825C49.0479 35.537 48.9311 34.932 48.4857 34.6309C48.0403 34.3296 47.4352 34.4467 47.1341 34.892C46.6243 35.646 45.7794 36.0962 44.874 36.0962C43.9686 36.0962 43.1238 35.646 42.6139 34.892C42.3129 34.4467 41.7078 34.3297 41.2623 34.6309C40.8168 34.932 40.7 35.537 41.0011 35.9825C41.8736 37.2725 43.3213 38.0428 44.874 38.0428Z" fill="#7798CE"/>
<path d="M16.1262 41.9537C20.8404 41.9537 24.6759 38.1184 24.6759 33.404C24.6759 28.6896 20.8404 24.8542 16.1262 24.8542C11.4119 24.8542 7.57642 28.6896 7.57642 33.404C7.57642 38.1184 11.4119 41.9537 16.1262 41.9537ZM16.1262 26.8011C19.7671 26.8011 22.7291 29.7631 22.7291 33.404C22.7291 37.0449 19.7671 40.0069 16.1262 40.0069C12.4852 40.0069 9.52322 37.0449 9.52322 33.404C9.52322 29.7631 12.4852 26.8011 16.1262 26.8011Z" fill="#7798CE"/>
<path d="M16.1259 38.0428C17.6786 38.0428 19.1263 37.2725 19.9988 35.9825C20.2999 35.537 20.1831 34.932 19.7376 34.6309C19.2922 34.3296 18.6872 34.4467 18.386 34.892C17.8762 35.646 17.0313 36.0962 16.1259 36.0962C15.2205 36.0962 14.3758 35.646 13.8658 34.892C13.5648 34.4467 12.9598 34.3297 12.5142 34.6309C12.0688 34.932 11.952 35.537 12.2531 35.9825C13.1255 37.2725 14.5733 38.0428 16.1259 38.0428Z" fill="#7798CE"/>
<path d="M16.1261 43.9005C7.23408 43.9005 0 51.1346 0 60.0266C0 60.5642 0.435696 61 0.973404 61C1.51111 61 1.94681 60.5642 1.94681 60.0266C1.94681 52.2081 8.30768 45.8473 16.1261 45.8473C23.9444 45.8473 30.3053 52.2081 30.3053 60.0266C30.3053 60.5642 30.741 61 31.2787 61C31.8164 61 32.2521 60.5642 32.2521 60.0266C32.2521 51.1346 25.018 43.9005 16.1261 43.9005Z" fill="#7798CE"/>
<path d="M44.874 43.9005C39.797 43.9005 35.1185 46.2197 32.0383 50.2633C31.7124 50.691 31.7951 51.3018 32.2227 51.6275C32.6506 51.9533 33.261 51.8706 33.5869 51.4431C36.2958 47.8869 40.4098 45.8473 44.8741 45.8473C52.6925 45.8473 59.0534 52.2081 59.0534 60.0266C59.0534 60.5642 59.4891 61 60.0268 61C60.5645 61 61.0002 60.5642 61.0002 60.0266C61.0001 51.1346 53.766 43.9005 44.874 43.9005Z" fill="#7798CE"/>
</svg>
