<svg width="72" height="60" viewBox="0 0 72 60" fill="none" xmlns="http://www.w3.org/2000/svg">
<path d="M14.6399 50L14.6366 50L14.633 50H2.02817C1.6477 50 1.31041 49.7897 1.13121 49.4665C1.04805 49.3165 1 49.1431 1 48.9549V2.04507C1 1.46005 1.46814 1 2.02817 1H14.633C15.193 1 15.6612 1.46005 15.6612 2.04507V16.8V17.8H16.6612H40.2198C40.7798 17.8 41.2479 18.26 41.2479 18.8451V48.9549C41.2479 49.5399 40.7798 50 40.2198 50L14.6399 50ZM43.2479 52.4451C43.2479 51.8601 43.7161 51.4 44.2761 51.4H69.9718C70.5319 51.4 71 51.8601 71 52.4451V57.9549C71 58.5399 70.5319 59 69.9718 59H44.2761C43.7161 59 43.2479 58.5399 43.2479 57.9549V52.4451Z" stroke="#7798CE" stroke-width="2"/>
</svg>
