<svg width="47" height="56" viewBox="0 0 47 56" fill="none" xmlns="http://www.w3.org/2000/svg">
<path d="M49.4375 56H6.5625C2.94373 56 0 53.0563 0 49.4375V6.5625C0 2.94373 2.94373 0 6.5625 0H49.4375C53.0563 0 56 2.94373 56 6.5625V49.4375C56 53.0563 53.0563 56 49.4375 56ZM6.5625 4.375C5.35638 4.375 4.375 5.35638 4.375 6.5625V49.4375C4.375 50.6436 5.35638 51.625 6.5625 51.625H49.4375C50.6436 51.625 51.625 50.6436 51.625 49.4375V6.5625C51.625 5.35638 50.6436 4.375 49.4375 4.375H6.5625ZM47.1295 16.5532L43.8701 13.6343L23.6395 36.2275L11.8979 25.0661L8.88373 28.2367L23.892 42.5042L47.1295 16.5532Z" fill="white"/>
</svg>
