<svg width="59" height="59" viewBox="0 0 59 59" fill="none" xmlns="http://www.w3.org/2000/svg">
<path d="M29.5 26.7267C21.6548 26.7267 15.2723 33.1092 15.2723 40.9543C15.2723 48.7995 21.6548 55.182 29.5 55.182C37.3451 55.182 43.7276 48.7994 43.7276 40.9543C43.7276 33.1093 37.3453 26.7267 29.5 26.7267ZM41.9687 40.0901H37.0324C36.9684 37.9846 36.6722 36.0156 36.1898 34.2702C37.2959 33.9649 38.3242 33.5832 39.2421 33.1334C40.7965 35.0656 41.7888 37.4678 41.9687 40.0901ZM39.2421 48.7753C38.3241 48.3254 37.2959 47.9437 36.1898 47.6385C36.6722 45.893 36.9684 43.924 37.0324 41.8186H41.9687C41.7888 44.4409 40.7964 46.843 39.2421 48.7753ZM17.0314 41.8186H21.9677C22.0316 43.9241 22.3279 45.893 22.8103 47.6385C21.7041 47.9437 20.676 48.3254 19.758 48.7753C18.2037 46.843 17.2113 44.4409 17.0314 41.8186ZM19.758 33.1334C20.676 33.5832 21.7041 33.9649 22.8103 34.2702C22.3279 36.0156 22.0316 37.9845 21.9677 40.0901H17.0314C17.2113 37.4678 18.2036 35.0656 19.758 33.1334ZM33.8262 52.6811C34.5373 51.7573 35.1565 50.6075 35.6567 49.2816C36.4963 49.51 37.285 49.7854 38.0052 50.1043C36.8066 51.2193 35.3898 52.1024 33.8262 52.6811ZM33.4517 50.0172C32.3598 52.201 30.9194 53.4534 29.5001 53.4534C28.0808 53.4534 26.6404 52.201 25.5485 50.0172C25.3706 49.6613 25.2059 49.2857 25.052 48.8962C26.4598 48.6378 27.964 48.5002 29.5001 48.5002C31.0363 48.5002 32.5404 48.6378 33.9481 48.8962C33.7942 49.2857 33.6296 49.6613 33.4517 50.0172ZM20.9949 50.1043C21.7151 49.7854 22.5038 49.51 23.3434 49.2816C23.8435 50.6075 24.4627 51.7572 25.1739 52.6811C23.6102 52.1024 22.1934 51.2193 20.9949 50.1043ZM29.5 46.7717C27.776 46.7717 26.0816 46.935 24.4982 47.243C24.0356 45.5944 23.7614 43.7505 23.6984 41.8185H35.3016C35.2384 43.7505 34.9644 45.5944 34.5017 47.243C32.9184 46.935 31.224 46.7717 29.5 46.7717ZM23.6984 40.0901C23.7615 38.158 24.0356 36.3142 24.4982 34.6655C26.0816 34.9737 27.776 35.1368 29.5 35.1368C31.224 35.1368 32.9184 34.9737 34.5017 34.6655C34.9644 36.3142 35.2385 38.158 35.3016 40.0901H23.6984ZM29.5 33.4084C27.9638 33.4084 26.4596 33.2708 25.0519 33.0125C25.2058 32.623 25.3704 32.2474 25.5484 31.8916C26.6403 29.7078 28.0806 28.4553 29.5 28.4553C30.9193 28.4553 32.3596 29.7078 33.4516 31.8916C33.6295 32.2474 33.7941 32.623 33.948 33.0125C32.5404 33.2707 31.0362 33.4084 29.5 33.4084ZM25.1739 29.2275C24.4627 30.1513 23.8436 31.3011 23.3434 32.627C22.5038 32.3986 21.7151 32.1232 20.9948 31.8044C22.1934 30.6894 23.6102 29.8062 25.1739 29.2275ZM33.8262 29.2275C35.3898 29.8062 36.8066 30.6895 38.0052 31.8044C37.285 32.1232 36.4963 32.3986 35.6566 32.627C35.1566 31.3011 34.5373 30.1513 33.8262 29.2275Z" fill="white"/>
<path d="M4.68237 7.45569H5.63698C6.11439 7.45569 6.50123 7.06873 6.50123 6.59143C6.50123 6.11413 6.11439 5.72717 5.63698 5.72717H4.68237C4.20496 5.72717 3.81812 6.11413 3.81812 6.59143C3.81812 7.06873 4.20507 7.45569 4.68237 7.45569Z" fill="white"/>
<path d="M10.4095 7.45569H11.3641C11.8416 7.45569 12.2284 7.06873 12.2284 6.59143C12.2284 6.11413 11.8416 5.72717 11.3641 5.72717H10.4095C9.93213 5.72717 9.54529 6.11413 9.54529 6.59143C9.54529 7.06873 9.93213 7.45569 10.4095 7.45569Z" fill="white"/>
<path d="M16.1367 7.45569H17.0912C17.5686 7.45569 17.9555 7.06873 17.9555 6.59143C17.9555 6.11413 17.5686 5.72717 17.0912 5.72717H16.1367C15.6593 5.72717 15.2725 6.11413 15.2725 6.59143C15.2725 7.06873 15.6593 7.45569 16.1367 7.45569Z" fill="white"/>
<path d="M59.0006 4.6822C59.0006 2.10049 56.9001 0 54.3184 0H4.68318C2.10135 0 0.000976562 2.10049 0.000976562 4.6822V37.1362C0.000976562 39.7181 2.10147 41.8184 4.6833 41.8184H11.4764C11.9289 51.3692 19.8401 59 29.5007 59C39.1614 59 47.0727 51.3692 47.5252 41.8186H54.3183C56.9 41.8186 59.0005 39.7181 59.0005 37.1364V4.6822H59.0006ZM4.68318 1.72852H54.3183C55.947 1.72852 57.272 3.0536 57.272 4.6822V11.4543H1.72949V4.6822C1.72949 3.0536 3.05446 1.72852 4.68318 1.72852ZM29.5007 57.2715C20.5035 57.2715 13.1836 49.9516 13.1836 40.9543C13.1836 31.957 20.5035 24.6371 29.5007 24.6371C38.498 24.6371 45.8179 31.957 45.8179 40.9543C45.8179 49.9516 38.4981 57.2715 29.5007 57.2715ZM54.3184 40.09H47.5254C47.0727 30.5394 39.1615 22.9086 29.5007 22.9086C19.84 22.9086 11.9289 30.5394 11.4762 40.09H4.68318C3.05446 40.09 1.72938 38.765 1.72938 37.1364V13.1828H57.272V37.1364C57.2721 38.765 55.947 40.09 54.3184 40.09Z" fill="white"/>
<path d="M22.7858 9.36474H53.3959C54.3808 9.36474 55.1821 8.56352 55.1821 7.57861V5.60419C55.1821 4.61928 54.3808 3.81805 53.3959 3.81805H22.7858C21.8009 3.81805 20.9996 4.61928 20.9996 5.60419V7.5785C20.9996 8.56352 21.8009 9.36474 22.7858 9.36474ZM22.7281 5.60419C22.7281 5.57238 22.7541 5.54657 22.7858 5.54657H53.3959C53.4276 5.54657 53.4536 5.57238 53.4536 5.60419V7.5785C53.4536 7.6103 53.4276 7.63611 53.3959 7.63611H22.7858C22.7541 7.63611 22.7281 7.6103 22.7281 7.5785V5.60419Z" fill="white"/>
</svg>
