<svg width="60" height="60" viewBox="0 0 60 60" fill="none" xmlns="http://www.w3.org/2000/svg">
<path d="M36.9671 24.5215C35.0926 24.5215 33.5677 26.0463 33.5677 27.9204C33.5677 29.7949 35.0926 31.3197 36.9671 31.3197C38.8412 31.3197 40.366 29.7949 40.366 27.9204C40.366 26.0463 38.8412 24.5215 36.9671 24.5215ZM36.9671 29.5605C36.0626 29.5605 35.3265 28.8249 35.3265 27.9204C35.3265 27.0163 36.0626 26.2802 36.9671 26.2802C37.8712 26.2802 38.6073 27.0163 38.6073 27.9204C38.6073 28.8249 37.8712 29.5605 36.9671 29.5605Z" fill="#42A3F6"/>
<path d="M26.7311 16.0052C26.256 16.1046 25.9511 16.5706 26.0504 17.0457C26.1159 17.3593 26.1493 17.6825 26.1493 18.0061C26.1493 20.5788 24.0559 22.6721 21.4833 22.6721C18.9102 22.6721 16.8173 20.5788 16.8173 18.0061C16.8173 15.4335 18.9102 13.3401 21.4833 13.3401C22.5508 13.3401 23.5551 13.6908 24.3878 14.3546C24.7678 14.6567 25.3212 14.5944 25.6238 14.2145C25.9264 13.8345 25.8636 13.2811 25.4837 12.9785C24.353 12.0776 22.9321 11.5814 21.4833 11.5814C17.9407 11.5814 15.0586 14.4635 15.0586 18.0061C15.0586 21.5488 17.9407 24.4308 21.4833 24.4308C25.0259 24.4308 27.908 21.5488 27.908 18.0061C27.908 17.5616 27.8622 17.1176 27.7721 16.6859C27.6727 16.2108 27.2067 15.9068 26.7311 16.0052Z" fill="#42A3F6"/>
<path d="M4.44077 57.7144H0.879364C0.393677 57.7144 0 58.108 0 58.5937C0 59.0794 0.393677 59.4731 0.879364 59.4731H4.44077C4.92645 59.4731 5.32013 59.0794 5.32013 58.5937C5.32013 58.108 4.92645 57.7144 4.44077 57.7144Z" fill="#42A3F6"/>
<path d="M13.5035 57.7144H9.94257C9.45688 57.7144 9.06274 58.108 9.06274 58.5937C9.06274 59.0794 9.45688 59.4731 9.94257 59.4731H13.5035C13.9892 59.4731 14.3829 59.0794 14.3829 58.5937C14.3829 58.108 13.9892 57.7144 13.5035 57.7144Z" fill="#42A3F6"/>
<path d="M55.9896 56.2766C56.1567 56.4711 56.4002 56.5828 56.657 56.5828H58.7952C59.1033 56.5828 59.389 56.4217 59.5483 56.158C59.7076 55.8943 59.7172 55.5666 59.5739 55.2942L56.0006 48.4982C55.9086 48.3238 55.8843 48.1224 55.9315 47.9311L57.5094 41.5608C57.5094 41.5604 57.5098 41.5599 57.5098 41.5595L57.5108 41.5567C57.5117 41.5526 57.5121 41.5485 57.513 41.5448C57.5176 41.5242 57.5217 41.5041 57.5254 41.4839C57.5263 41.4775 57.5268 41.4711 57.5277 41.4647C57.5277 41.4638 57.5282 41.4633 57.5282 41.4624C57.5286 41.4578 57.5295 41.4533 57.53 41.4487C57.5318 41.4336 57.5332 41.418 57.5346 41.4024C57.535 41.3965 57.535 41.3901 57.535 41.3841C57.5359 41.3649 57.5368 41.3461 57.5364 41.3274V39.6716C57.5364 39.1859 57.1427 38.7923 56.657 38.7923C56.1713 38.7923 55.7777 39.1859 55.7777 39.6716V40.0346L51.9553 38.4682L52.0332 33.4639L52.5344 33.7688C52.9491 34.021 53.4902 33.8887 53.7424 33.4735C53.9947 33.0588 53.8628 32.5177 53.4476 32.2655L51.6262 31.1586C51.6193 31.1545 51.6125 31.1499 51.6051 31.1458L45.8616 27.6558C44.9346 27.0927 44.3583 26.1209 44.2667 25.08L53.0352 29.8421C53.0828 29.8705 53.1295 29.8993 53.1789 29.9249L53.3277 30.0009L54.5765 30.6793C55.3172 31.0817 55.7772 31.8553 55.7772 32.6985V36.14C55.7772 36.6257 56.1713 37.0194 56.657 37.0194C57.1427 37.0194 57.5364 36.6257 57.5364 36.14V32.6985C57.5364 31.7386 57.1967 30.8304 56.6058 30.1154C56.9564 29.8723 57.2443 29.5445 57.4444 29.1541L58.3823 27.3221C58.7028 26.6968 58.7605 25.9845 58.5444 25.3157C58.3288 24.6469 57.8655 24.1022 57.2402 23.7822L56.5151 23.4105C55.2242 22.7495 53.6362 23.2617 52.9748 24.5526L52.0368 26.3846C51.91 26.6322 51.8258 26.8932 51.7823 27.16L44.8266 23.3821C44.9625 22.9193 44.8476 22.4011 44.4865 22.0427L42.9356 20.4909C42.4371 19.9919 41.6273 19.9617 41.0935 20.4213L39.772 21.5547C39.7111 21.5277 39.6493 21.5016 39.587 21.4764L39.4799 19.7195C39.436 19.0059 38.8413 18.447 38.1268 18.447H35.9332C35.4328 18.447 34.9906 18.7244 34.7558 19.135V16.5161C34.7558 15.7022 34.1204 15.0165 33.3092 14.9542L31.5812 14.8224C31.4127 14.2891 31.2017 13.7695 30.9499 13.2674L32.1163 11.9495C32.6643 11.331 32.6354 10.3885 32.0513 9.80393L29.8147 7.56683C29.2393 6.99188 28.3045 6.95572 27.6875 7.48581L26.3718 8.6142C25.8752 8.35556 25.3579 8.13629 24.826 7.95959L24.7189 6.20453C24.669 5.37964 23.9823 4.73328 23.1556 4.73328H19.9924C19.179 4.73328 18.4928 5.36865 18.431 6.18027L18.2992 7.90787C17.711 8.09326 17.141 8.32947 16.5945 8.6142L15.2793 7.48581C14.6613 6.95572 13.727 6.99142 13.1521 7.56683L10.9155 9.80347C10.3309 10.388 10.3025 11.3306 10.85 11.949L12.0168 13.2669C11.7646 13.7686 11.5536 14.2886 11.3856 14.8219L9.65706 14.9538C8.8459 15.016 8.21052 15.7018 8.21052 16.5157V19.6783C8.21052 20.5051 8.85689 21.1917 9.68132 21.2421L11.4368 21.3487C11.6135 21.8806 11.8324 22.3975 12.0914 22.8946L10.9631 24.2102C10.433 24.8277 10.4687 25.762 11.0441 26.3374L13.2807 28.5741C13.8648 29.1586 14.8074 29.187 15.4263 28.6391L16.7442 27.4727C17.2459 27.7245 17.7659 27.9355 18.2992 28.1039L18.4296 29.8132L13.8959 30.2966C13.8323 30.3035 13.7678 30.2889 13.7128 30.2563L9.37691 27.4777C9.81087 27.057 10.1048 26.488 10.1656 25.8408L10.3593 23.7914C10.4252 23.0919 10.2146 22.4089 9.76692 21.8674C9.31877 21.3263 8.68706 20.9917 7.98759 20.9258L7.17644 20.8488C6.47697 20.7825 5.79353 20.993 5.25246 21.4412C4.71092 21.8893 4.3763 22.5211 4.31038 23.2205L4.11674 25.2695C4.05586 25.9149 4.23302 26.5453 4.61204 27.0644C4.49211 27.1655 4.3763 27.2745 4.26964 27.3953L3.86223 27.8572C3.11699 28.7027 2.70134 29.789 2.69218 30.916L2.63451 37.8575L0.364455 55.4659C0.331954 55.7167 0.409316 55.9694 0.5764 56.1594C0.743026 56.3489 0.98381 56.4578 1.2365 56.4578H3.51341C3.88832 56.4578 4.22249 56.2198 4.34471 55.8655L9.99718 39.4807L15.2546 44.9501C15.5489 45.2486 15.603 45.7068 15.386 46.0643C15.3626 46.1032 15.342 46.144 15.3251 46.1856L11.8255 54.6996H11.3645L12.9122 47.8107C13.0733 47.3346 12.9951 46.8141 12.6984 46.404C12.676 46.3738 12.6522 46.3445 12.6266 46.3174L11.0052 44.5949C10.6724 44.2415 10.1157 44.2246 9.76234 44.5573C9.40849 44.8901 9.39155 45.4468 9.72435 45.8006L11.2075 47.3758L9.40758 55.3862C9.34898 55.6467 9.41215 55.92 9.57878 56.1287C9.74586 56.337 9.99855 56.4583 10.2654 56.4583H12.4146C12.7712 56.4583 13.0926 56.2431 13.2281 55.9135L16.9286 46.9112C17.5182 45.8739 17.3498 44.5702 16.5148 43.7233L10.5186 37.4854L10.5662 33.9185L12.3478 34.9091C12.7309 35.1219 13.1631 35.2061 13.5975 35.1521L18.0882 34.5996C19.9023 34.3767 21.3296 33.0103 21.6853 31.2785H23.1561C23.9823 31.2785 24.669 30.6322 24.7193 29.8073L24.826 28.0522C25.3039 27.8929 25.7703 27.6993 26.2226 27.4722L27.4943 28.5979V29.0804C27.4943 29.7949 28.0527 30.3891 28.7669 30.4335L30.5224 30.5406C30.548 30.6024 30.5741 30.6642 30.6011 30.7256L29.4663 32.048C29.0095 32.5827 29.0411 33.3907 29.5377 33.8873L31.0909 35.4419C31.5972 35.945 32.412 35.9683 32.9458 35.4955L34.2628 34.33C34.3246 34.3561 34.3868 34.3813 34.4495 34.4055L34.5818 36.1386C34.6331 36.8427 35.2268 37.3938 35.9332 37.3938H38.1268C38.8413 37.3938 39.4355 36.8353 39.4799 36.1212L39.587 34.3657C39.6154 34.3542 39.6438 34.3423 39.6722 34.3304L40.9882 35.4955C41.522 35.9683 42.3368 35.945 42.8463 35.4396L44.3963 33.8882C44.8934 33.3911 44.925 32.5827 44.4672 32.0471L43.3334 30.7256C43.3604 30.6647 43.3869 30.6029 43.4121 30.5406L45.1685 30.4335C45.5764 30.4083 45.933 30.2028 46.1642 29.8979L50.2905 32.4051L50.1916 38.7634L45.2528 45.6294C44.866 46.1668 44.6902 46.8269 44.7579 47.4898L45.6199 55.7941C45.6666 56.2422 46.0442 56.5828 46.4947 56.5828H48.5111C48.9698 56.5828 49.352 56.2299 49.3877 55.7721L49.9096 49.1391C49.9155 49.0649 49.9306 48.9931 49.9531 48.924C50.0707 49.2732 50.2547 49.6005 50.501 49.8866L55.9896 56.2766ZM53.5484 27.8513C53.4769 27.6297 53.4962 27.3935 53.6024 27.1861L54.5403 25.3546C54.7596 24.9271 55.2856 24.7572 55.7131 24.976L56.4382 25.3473C56.6456 25.4535 56.7989 25.6339 56.8703 25.8554C56.9418 26.077 56.923 26.3132 56.8168 26.5201L55.8788 28.3521C55.7726 28.5594 55.5923 28.7128 55.3707 28.7842C55.1487 28.8556 54.9129 28.8368 54.7056 28.7306L54.1512 28.4468L53.8885 28.304C53.7283 28.1955 53.6088 28.0385 53.5484 27.8513ZM34.521 20.5009L34.4495 21.4357C34.3525 21.4732 34.2564 21.5131 34.1616 21.5547L33.6997 21.1583C34.044 21.0393 34.3328 20.8044 34.521 20.5009ZM5.86815 25.4347L6.06178 23.3858C6.08375 23.1541 6.19453 22.9445 6.37352 22.7962C6.53145 22.6657 6.72554 22.5961 6.92787 22.5961C6.95534 22.5961 6.98326 22.5975 7.01118 22.6003L7.82234 22.6767C8.05397 22.6987 8.26363 22.8095 8.41194 22.9889C8.56026 23.1679 8.62984 23.3945 8.60832 23.6261L8.41469 25.6755C8.37349 26.1127 8.01369 26.4441 7.58659 26.4633C7.2039 26.3425 6.80748 26.2994 6.41746 26.3274C6.06499 26.1887 5.83107 25.8298 5.86815 25.4347ZM2.88673 54.6991H2.23671L4.28841 38.7872L8.395 38.7318L2.88673 54.6991ZM17.8735 32.8542L13.3823 33.4067C13.3201 33.4145 13.2578 33.4026 13.2024 33.3719L10.1478 31.6736C10.1382 31.6681 10.1286 31.6626 10.1189 31.6576L8.04573 30.5049C7.62092 30.2683 7.0858 30.4216 6.84959 30.8459C6.61384 31.2703 6.76674 31.8059 7.19108 32.0421L8.82027 32.948L8.76671 36.9672L4.40056 37.0262L4.45137 30.9306C4.45686 30.2266 4.71641 29.5482 5.18196 29.0204L5.58937 28.5585C5.79353 28.3264 6.05675 28.1767 6.33736 28.1136C6.38771 28.1213 6.43761 28.1305 6.48888 28.1355L7.22496 28.2051C7.28676 28.233 7.34764 28.266 7.40669 28.304L12.7721 31.7423C12.7763 31.745 12.7799 31.7473 12.784 31.75C13.1699 31.9881 13.6309 32.0929 14.0827 32.0453L19.7974 31.4365C19.4564 32.1909 18.7405 32.7475 17.8735 32.8542ZM25.904 25.6462C25.2283 26.0381 24.5069 26.3374 23.7594 26.5366C23.3932 26.6341 23.1304 26.955 23.1075 27.3331L22.9748 29.5198H20.1714L20.0062 27.3578C19.9773 26.9797 19.7095 26.6629 19.342 26.5714C18.5455 26.3727 17.7787 26.0614 17.0623 25.6462C16.7345 25.4558 16.3221 25.497 16.0383 25.7483L14.3963 27.2022L12.4142 25.22L13.8264 23.5739C14.0736 23.2864 14.1079 22.8726 13.9129 22.5481C13.4881 21.8417 13.1649 21.0791 12.953 20.2821C12.8555 19.9159 12.5346 19.6532 12.1564 19.6303L9.96971 19.4971V16.6942L12.1317 16.5289C12.5098 16.5001 12.8266 16.2323 12.9182 15.8647C13.1164 15.0687 13.4277 14.3015 13.8433 13.5851C14.0333 13.2573 13.9925 12.8448 13.7412 12.561L12.2874 10.919L14.2695 8.93692L15.9156 10.3491C16.2031 10.5963 16.6164 10.6311 16.9415 10.4356C17.6885 9.98657 18.496 9.65195 19.342 9.44092C19.71 9.34937 19.9773 9.03259 20.0062 8.65448L20.1714 6.49246H22.9748L23.1075 8.6792C23.1304 9.05731 23.3932 9.3782 23.7594 9.47571C24.5568 9.68811 25.319 10.0108 26.0258 10.4356C26.3503 10.6311 26.7637 10.5963 27.0516 10.3496L28.6973 8.93738L30.6794 10.919L29.226 12.561C28.9747 12.8448 28.9335 13.2573 29.1235 13.5851C29.5391 14.3019 29.8504 15.0687 30.0486 15.8647C30.1402 16.2328 30.4574 16.5006 30.835 16.5294L32.9975 16.6942V19.4971L30.8108 19.6303C30.4322 19.6532 30.1118 19.9159 30.0143 20.2821C29.8019 21.0796 29.4791 21.8417 29.0543 22.5481C28.8589 22.8731 28.8937 23.2864 29.1404 23.5739L30.5526 25.22L28.5705 27.2022L26.9285 25.7483C26.6447 25.497 26.2318 25.4558 25.904 25.6462ZM42.7259 28.8203C42.3602 28.8428 42.0461 29.09 41.9386 29.4402C41.8333 29.7844 41.6914 30.1176 41.5183 30.4308C41.3398 30.7526 41.3805 31.1508 41.6199 31.4301L42.8884 32.9082L41.8703 33.9272L40.4028 32.628C40.1272 32.384 39.7289 32.3373 39.4048 32.5113C39.1155 32.6656 38.8065 32.7942 38.4866 32.8922C38.1364 32.9997 37.8892 33.3133 37.8667 33.6795L37.7473 35.6351H36.3076L36.1588 33.691C36.1309 33.3247 35.8778 33.0144 35.5248 32.9128C35.176 32.8125 34.8409 32.6775 34.5292 32.5108C34.2051 32.3378 33.8068 32.3845 33.5317 32.628L32.0637 33.9272L31.0456 32.9082L32.3145 31.4301C32.5539 31.1508 32.5942 30.7526 32.4162 30.4308C32.2427 30.1176 32.1012 29.7844 31.9959 29.4406C31.8884 29.09 31.5743 28.8428 31.2086 28.8203L29.5181 28.7173C29.5762 28.6734 29.6329 28.6267 29.6856 28.5741C29.6856 28.5741 32.3681 25.4997 32.3795 25.4782C32.5498 25.1546 32.5022 24.7591 32.2601 24.4853L31.6201 23.7625L31.6132 23.7543C31.6087 23.7492 31.6041 23.7437 31.5995 23.7387L31.5844 23.7218L30.971 23.0067L31.9781 21.9988L33.4566 23.2681C33.7359 23.508 34.1346 23.5487 34.4564 23.3698C34.7892 23.1848 35.149 23.036 35.5257 22.9276C35.8782 22.8255 36.1309 22.5156 36.1588 22.1494L36.3076 20.2057H37.7473L37.8667 22.1622C37.8892 22.5284 38.1359 22.842 38.4866 22.9495C38.8308 23.0553 39.164 23.1967 39.4772 23.3702C39.799 23.5483 40.1972 23.508 40.476 23.2681L41.9559 21.9988L42.9598 23.0035C42.8687 23.0804 42.7932 23.1747 42.7396 23.2823L41.6744 24.4853C41.4304 24.7609 41.3837 25.1582 41.5572 25.4828C41.7234 25.7941 41.8594 26.1296 41.961 26.4812C42.0635 26.8332 42.373 27.0845 42.7383 27.1129L43.0697 27.1381C43.3791 27.7386 43.8071 28.2797 44.3382 28.7224L42.7259 28.8203ZM57.3396 54.8241H57.0608L51.8349 48.7404C51.6454 48.5197 51.5479 48.2382 51.5607 47.9475L51.8908 40.3423L55.6207 41.8712L54.2245 47.5081C54.0734 48.1178 54.1512 48.7605 54.4437 49.3167L57.3396 54.8241ZM49.0174 47.2252C48.5175 47.6866 48.2117 48.3156 48.1559 48.999L47.6977 54.8241H47.2875L46.5075 47.3099C46.4837 47.0769 46.545 46.8448 46.6805 46.6567L50.0597 41.9586L49.8652 46.4406L49.0174 47.2252Z" fill="#42A3F6"/>
<path d="M59.1207 57.7144H55.5593C55.0736 57.7144 54.6799 58.108 54.6799 58.5937C54.6799 59.0794 55.0736 59.4731 55.5593 59.4731H59.1207C59.6064 59.4731 60.0001 59.0794 60.0001 58.5937C60.0001 58.108 59.6064 57.7144 59.1207 57.7144Z" fill="#42A3F6"/>
<path d="M48.6443 57.7144H45.0829C44.5972 57.7144 44.2035 58.108 44.2035 58.5937C44.2035 59.0794 44.5972 59.4731 45.0829 59.4731H48.6443C49.1299 59.4731 49.5236 59.0794 49.5236 58.5937C49.5236 58.108 49.1299 57.7144 48.6443 57.7144Z" fill="#42A3F6"/>
<path d="M38.4521 16.0876C41.6208 16.0876 44.5363 17.5222 46.4566 19.9333L45.8006 19.774C45.3282 19.66 44.853 19.9497 44.7386 20.4217C44.6241 20.8937 44.9139 21.3688 45.3859 21.4837L48.1164 22.1456C48.5568 22.2834 49.113 22.0719 49.248 21.5148L49.8761 18.9239C49.9905 18.4519 49.7007 17.9768 49.2288 17.8619C48.7564 17.7479 48.2812 18.0372 48.1668 18.5096L48.0267 19.0873C45.7823 16.11 42.2744 14.3289 38.4521 14.3289C37.9664 14.3289 37.5728 14.7225 37.5728 15.2082C37.5728 15.6939 37.9664 16.0876 38.4521 16.0876Z" fill="#42A3F6"/>
<path d="M4.4586 11.494C4.53138 12.0085 5.17179 12.3734 5.65199 12.198L8.55055 11.1392C9.00694 10.9726 9.24177 10.4677 9.07515 10.0117C8.90806 9.55536 8.40315 9.32053 7.94722 9.48715L7.08708 9.80118C9.7714 5.21301 14.6823 2.34467 20.1137 2.34467C20.5993 2.34467 20.993 1.95099 20.993 1.4653C20.993 0.979614 20.5993 0.585938 20.1137 0.585938C13.9737 0.585938 8.4297 3.86948 5.45881 9.10538L5.11778 8.17154C4.95115 7.71561 4.44578 7.48123 3.99031 7.6474C3.53392 7.81403 3.29908 8.31894 3.46571 8.77533L4.4586 11.494Z" fill="#42A3F6"/>
</svg>
