<svg width="59" height="59" viewBox="0 0 59 59" fill="none" xmlns="http://www.w3.org/2000/svg">
<path d="M7.6129 8.56452V8.53977C8.7615 7.67095 9.51613 6.30634 9.51613 4.75806C9.51613 2.13447 7.38166 0 4.75806 0C2.13447 0 0 2.13447 0 4.75806C0 6.30634 0.754629 7.67095 1.90323 8.53977V59H3.80645V9.42002C4.11382 9.48282 4.43261 9.51613 4.75806 9.51613C5.08352 9.51613 5.40231 9.48282 5.70968 9.42002V59H7.6129V50.4355H59V8.56452H7.6129ZM37.1129 10.4677H51.9838L37.1129 20.1333V10.4677ZM27.5968 10.4677V20.1333L12.7259 10.4677H27.5968ZM9.23445 10.4677L27.5968 22.4038V24.7419H25.9752L7.6129 12.8059V10.4677H9.23445ZM22.4838 24.7419H7.6129V15.0764L22.4838 24.7419ZM4.75806 7.6129C3.1841 7.6129 1.90323 6.33203 1.90323 4.75806C1.90323 3.1841 3.1841 1.90323 4.75806 1.90323C6.33203 1.90323 7.6129 3.1841 7.6129 4.75806C7.6129 6.33203 6.33203 7.6129 4.75806 7.6129ZM27.5968 48.5323H12.7269L27.5968 38.8667V48.5323ZM27.5968 36.5962L9.2335 48.5323H7.6129V46.1941L10.0348 44.6202L8.9975 43.0234L7.6129 43.9236V34.2581H22.4828L10.6219 41.968L11.6592 43.5648L25.9762 34.2581H27.5968V36.5962ZM37.1129 48.5323V38.8667L51.9828 48.5323H37.1129ZM57.0968 48.5323H55.4762L37.1129 36.5962V34.2581H38.7335L57.0968 46.1941V48.5323ZM57.0968 32.3548H55.1935V34.2581H57.0968V43.9236L42.2269 34.2581H53.2903V32.3548H35.2097V48.5323H29.5V32.3548H7.6129V26.6452H29.5V10.4677H35.2097V26.6452H57.0968V32.3548ZM57.0968 24.7419H42.2259L57.0968 15.0764V24.7419ZM57.0968 12.8059L38.7345 24.7419H37.1129V22.4038L55.4752 10.4677H57.0968V12.8059Z" fill="#42A3F6"/>
</svg>
