<svg width="67" height="61" viewBox="0 0 67 61" fill="none" xmlns="http://www.w3.org/2000/svg">
<path d="M8.452 46.8701H7.99413C7.72626 46.8701 7.46937 46.7637 7.27995 46.5743C7.09054 46.3849 6.98413 46.128 6.98413 45.8601C6.98413 45.5922 7.09054 45.3353 7.27995 45.1459C7.46937 44.9565 7.72626 44.8501 7.99413 44.8501H8.452C8.71987 44.8501 8.97676 44.9565 9.16618 45.1459C9.35559 45.3353 9.462 45.5922 9.462 45.8601C9.462 46.128 9.35559 46.3849 9.16618 46.5743C8.97676 46.7637 8.71987 46.8701 8.452 46.8701Z" fill="#42A3F6"/>
<path d="M62.0184 52.7833H4.98163C3.77739 52.8123 2.60777 52.3791 1.71294 51.5727C0.818118 50.7662 0.266007 49.6478 0.169988 48.4471V5.67019C0.124924 5.004 0.214989 4.33557 0.434772 3.70506C0.654555 3.07455 0.999521 2.49497 1.44895 2.00114C1.89837 1.50732 2.44298 1.10943 3.05006 0.831393C3.65713 0.553353 4.31415 0.400895 4.98163 0.383179H62.0184C63.294 0.384604 64.5171 0.892003 65.4191 1.79405C66.3212 2.6961 66.8286 3.91913 66.83 5.19482V47.9717C66.8286 49.2474 66.3212 50.4704 65.4191 51.3725C64.5171 52.2745 63.294 52.7819 62.0184 52.7833V52.7833ZM4.98163 2.40318C4.57822 2.41857 4.18237 2.51735 3.81902 2.69328C3.45567 2.86921 3.13269 3.11849 2.87043 3.4254C2.60817 3.73232 2.41232 4.09022 2.29521 4.47656C2.1781 4.86291 2.14228 5.26932 2.18999 5.67019V48.4471C2.29686 49.1053 2.6385 49.7026 3.15171 50.1284C3.66492 50.5542 4.31497 50.7798 4.98163 50.7633H62.0184C62.7585 50.7626 63.4682 50.4683 63.9916 49.9449C64.5149 49.4215 64.8093 48.7119 64.81 47.9717V5.19482C64.8093 4.45465 64.5149 3.745 63.9916 3.22162C63.4682 2.69824 62.7585 2.40389 62.0184 2.40318H4.98163Z" fill="#42A3F6"/>
<path d="M44.2465 60.6169H22.7537C22.5806 60.6172 22.4104 60.5731 22.2594 60.4887C22.1084 60.4043 21.9816 60.2825 21.8912 60.1349C21.8009 59.9874 21.75 59.819 21.7435 59.6461C21.737 59.4732 21.7751 59.3016 21.8541 59.1477L25.8456 51.3141C25.9302 51.1483 26.059 51.0091 26.2178 50.9119C26.3765 50.8147 26.559 50.7633 26.7452 50.7633H40.2549C40.4411 50.7633 40.6236 50.8147 40.7823 50.9119C40.9411 51.0091 41.0699 51.1483 41.1545 51.3141L45.146 59.1477C45.225 59.3016 45.2631 59.4732 45.2566 59.6461C45.2501 59.819 45.1992 59.9874 45.1089 60.1349C45.0185 60.2825 44.8918 60.4043 44.7407 60.4887C44.5897 60.5731 44.4195 60.6172 44.2465 60.6169V60.6169ZM24.4006 58.5969H42.5995L39.6368 52.7833H27.3646L24.4006 58.5969Z" fill="#42A3F6"/>
<path d="M46.801 60.6169H20.199C19.9311 60.6169 19.6742 60.5105 19.4848 60.3211C19.2954 60.1317 19.189 59.8748 19.189 59.6069C19.189 59.3391 19.2954 59.0822 19.4848 58.8928C19.6742 58.7033 19.9311 58.5969 20.199 58.5969H46.801C47.0689 58.5969 47.3258 58.7033 47.5152 58.8928C47.7046 59.0822 47.811 59.3391 47.811 59.6069C47.811 59.8748 47.7046 60.1317 47.5152 60.3211C47.3258 60.5105 47.0689 60.6169 46.801 60.6169V60.6169Z" fill="#42A3F6"/>
<path d="M65.8199 41.3152H1.17992C0.912053 41.3152 0.655156 41.2088 0.465745 41.0193C0.276333 40.8299 0.169922 40.573 0.169922 40.3052C0.169922 40.0373 0.276333 39.7804 0.465745 39.591C0.655156 39.4016 0.912053 39.2952 1.17992 39.2952H65.8199C66.0878 39.2952 66.3447 39.4016 66.5341 39.591C66.7235 39.7804 66.8299 40.0373 66.8299 40.3052C66.8299 40.573 66.7235 40.8299 66.5341 41.0193C66.3447 41.2088 66.0878 41.3152 65.8199 41.3152Z" fill="#42A3F6"/>
<path d="M30.4875 32.3087C30.3834 32.3081 30.28 32.2922 30.1805 32.2615C29.9254 32.1796 29.7132 32 29.5903 31.762C29.4674 31.524 29.4438 31.247 29.5247 30.9916L35.5496 12.0507C35.6309 11.7954 35.8103 11.5827 36.0483 11.4596C36.2863 11.3365 36.5635 11.313 36.8189 11.3942C37.0742 11.4755 37.2869 11.6549 37.41 11.8929C37.5331 12.1309 37.5566 12.4081 37.4754 12.6635L31.4504 31.6044C31.3855 31.8088 31.2572 31.9872 31.0841 32.1139C30.9109 32.2405 30.702 32.3087 30.4875 32.3087V32.3087Z" fill="#42A3F6"/>
<path d="M41.8965 27.5024C41.6902 27.5022 41.489 27.4389 41.3198 27.321C41.1506 27.2031 41.0216 27.0363 40.95 26.8428C40.8785 26.6494 40.8678 26.4388 40.9196 26.2391C40.9713 26.0395 41.0828 25.8605 41.2393 25.7261L45.7802 21.8302L41.2393 17.9343C41.0359 17.7599 40.9101 17.5117 40.8897 17.2445C40.8692 16.9773 40.9557 16.713 41.1302 16.5096C41.3047 16.3062 41.5528 16.1804 41.82 16.1599C42.0872 16.1395 42.3516 16.226 42.555 16.4005L47.9888 21.0626C48.0994 21.1574 48.1882 21.2751 48.2491 21.4075C48.31 21.5398 48.3416 21.6838 48.3416 21.8296C48.3416 21.9753 48.31 22.1193 48.2491 22.2516C48.1882 22.384 48.0994 22.5017 47.9888 22.5965L42.555 27.26C42.3714 27.4168 42.1379 27.5028 41.8965 27.5024V27.5024Z" fill="#42A3F6"/>
<path d="M25.1036 27.5024C24.8622 27.5028 24.6286 27.4168 24.445 27.26L19.0112 22.5965C18.9006 22.5017 18.8118 22.384 18.7509 22.2516C18.69 22.1193 18.6584 21.9753 18.6584 21.8296C18.6584 21.6838 18.69 21.5399 18.7509 21.4075C18.8118 21.2751 18.9006 21.1575 19.0112 21.0626L24.445 16.4005C24.5457 16.3141 24.6625 16.2484 24.7886 16.2071C24.9147 16.1658 25.0477 16.1498 25.18 16.1599C25.3123 16.1701 25.4413 16.2061 25.5597 16.2661C25.678 16.3261 25.7834 16.4088 25.8698 16.5096C25.9562 16.6103 26.0219 16.727 26.0632 16.8531C26.1044 16.9792 26.1205 17.1122 26.1103 17.2445C26.1002 17.3768 26.0641 17.5058 26.0041 17.6242C25.9442 17.7426 25.8614 17.8479 25.7607 17.9343L21.2198 21.8302L25.7607 25.7261C25.9172 25.8605 26.0288 26.0395 26.0805 26.2391C26.1322 26.4388 26.1215 26.6495 26.05 26.8429C25.9784 27.0363 25.8494 27.2031 25.6802 27.321C25.511 27.4389 25.3098 27.5022 25.1036 27.5024V27.5024Z" fill="#42A3F6"/>
</svg>
