<svg width="69" height="39" viewBox="0 0 69 39" fill="none" xmlns="http://www.w3.org/2000/svg">
<path d="M1 2C1 1.44771 1.44771 1 2 1H11.9286C12.4809 1 12.9286 1.44772 12.9286 2V13.3214C12.9286 13.8737 12.4809 14.3214 11.9286 14.3214H2C1.44772 14.3214 1 13.8737 1 13.3214V2ZM1 20.8036C1 20.2513 1.44772 19.8036 2 19.8036H11.9286C12.4809 19.8036 12.9286 20.2513 12.9286 20.8036V37C12.9286 37.5523 12.4809 38 11.9286 38H2C1.44772 38 1 37.5523 1 37V20.8036ZM17.7143 2C17.7143 1.44771 18.162 1 18.7143 1H28.6429C29.1951 1 29.6429 1.44772 29.6429 2V24.4643C29.6429 25.0166 29.1951 25.4643 28.6429 25.4643H18.7143C18.162 25.4643 17.7143 25.0166 17.7143 24.4643V2ZM17.7143 30.5536C17.7143 30.0013 18.162 29.5536 18.7143 29.5536H28.6429C29.1951 29.5536 29.6429 30.0013 29.6429 30.5536V37C29.6429 37.5523 29.1951 38 28.6429 38H18.7143C18.162 38 17.7143 37.5523 17.7143 37V30.5536ZM39 2C39 1.44772 39.4477 1 40 1H50C50.5523 1 51 1.44772 51 2V37C51 37.5523 50.5523 38 50 38H40C39.4477 38 39 37.5523 39 37V2ZM56 2C56 1.44772 56.4477 1 57 1H67C67.5523 1 68 1.44772 68 2V37C68 37.5523 67.5523 38 67 38H57C56.4477 38 56 37.5523 56 37V2Z" stroke="#7798CE" stroke-width="2"/>
</svg>
