<svg width="33" height="32" viewBox="0 0 33 32" fill="none" xmlns="http://www.w3.org/2000/svg">
<path d="M16.5 0C7.38375 0 0 7.34598 0 16.406C0 23.656 4.72725 29.8041 11.2819 31.9717C12.1069 32.1261 12.4094 31.6183 12.4094 31.1828C12.4094 30.7933 12.3956 29.761 12.3888 28.3933C7.799 29.3825 6.831 26.1923 6.831 26.1923C6.08025 24.2988 4.99537 23.7923 4.99537 23.7923C3.50075 22.7753 5.11088 22.7962 5.11088 22.7962C6.76775 22.9103 7.63812 24.4866 7.63812 24.4866C9.10938 26.9951 11.5005 26.2702 12.4438 25.8514C12.5922 24.7899 13.0171 24.0678 13.4888 23.6574C9.82438 23.247 5.973 21.8362 5.973 15.5504C5.973 13.7598 6.61238 12.2962 7.67112 11.1484C7.4855 10.7338 6.92863 9.0656 7.8155 6.80616C7.8155 6.80616 9.19738 6.36651 12.353 8.48822C13.673 8.1237 15.0755 7.94284 16.478 7.93449C17.8805 7.94284 19.283 8.1237 20.603 8.48822C23.738 6.36651 25.1199 6.80616 25.1199 6.80616C26.0067 9.0656 25.4499 10.7338 25.2849 11.1484C26.3368 12.2962 26.9761 13.7598 26.9761 15.5504C26.9761 21.8529 23.1192 23.24 19.448 23.6435C20.0255 24.136 20.5618 25.1419 20.5618 26.6793C20.5618 28.8747 20.5411 30.6388 20.5411 31.1717C20.5411 31.6016 20.8299 32.115 21.6755 31.9508C28.2769 29.7971 33 23.6449 33 16.406C33 7.34598 25.6121 0 16.5 0Z" fill="#464646"/>
</svg>
