<svg width="27" height="60" viewBox="0 0 27 60" fill="none" xmlns="http://www.w3.org/2000/svg">
<path d="M20.7011 58.2155L21.2728 48.7518L22.8514 46.0748C22.8514 46.0748 19.2585 47.5349 13.2435 47.5349C7.22844 47.5349 3.69006 46.1018 3.69006 46.1018L5.4592 49.022L6.08504 58.2155C6.08504 59.2011 9.3569 60 13.3931 60C17.4291 60 20.7011 59.2011 20.7011 58.2155Z" fill="#42A3F6"/>
<path d="M20.7011 58.2155L21.2728 48.7518L22.8514 46.0748C22.8514 46.0748 19.2585 47.5349 13.2435 47.5349C7.22844 47.5349 3.69006 46.1018 3.69006 46.1018L5.4592 49.022L6.08504 58.2155C6.08504 59.2011 9.3569 60 13.3931 60C17.4291 60 20.7011 59.2011 20.7011 58.2155Z" fill="#42A3F6"/>
<path d="M18.8977 14.0215L20.0977 9.30958L26.7429 2.3632L24.9914 0.881226L17.9562 8.28086L16.5629 13.9104C15.5534 13.8765 14.4999 13.8584 13.416 13.8584C6.00657 13.8584 0 14.6973 0 15.7319C0 16.7666 6.00657 17.6054 13.416 17.6054C20.8253 17.6054 26.8318 16.7666 26.8318 15.7319C26.8318 14.97 23.5741 14.3143 18.8977 14.0215Z" fill="#42A3F6"/>
<path d="M18.8977 14.0214L20.0977 9.30946L26.7429 2.36308L24.9914 0.881104L17.9562 8.28073L16.5629 13.9103C15.5534 13.8764 14.4999 13.8583 13.416 13.8583C6.00657 13.8583 0 14.6972 0 15.7317C0 16.7664 6.00657 17.6052 13.416 17.6052C20.8253 17.6052 26.8318 16.7664 26.8318 15.7317C26.8318 14.9699 23.5741 14.3141 18.8977 14.0214Z" fill="#42A3F6"/>
<path d="M18.1997 16.6603C18.1997 16.6603 17.9398 16.7182 17.1753 16.7214C16.4106 16.7246 15.8677 16.7165 15.6514 16.5208C15.5933 16.4683 15.5615 16.3639 15.5618 16.2933C15.5624 16.1588 15.6585 16.0796 15.7809 16.03L15.8967 16.2104C15.8463 16.2277 15.8175 16.2481 15.8174 16.2698C15.817 16.372 16.5993 16.4419 17.1976 16.4344C17.7961 16.427 18.5192 16.3781 18.5198 16.2774C18.5198 16.2469 18.4651 16.2183 18.37 16.1956L18.4853 16.0165C18.6403 16.0643 18.7757 16.1567 18.7754 16.3166C18.7739 16.5885 18.4256 16.6298 18.1997 16.6603Z" fill="#45465A"/>
<path d="M18.1997 16.6603C18.1997 16.6603 17.9398 16.7182 17.1753 16.7214C16.4106 16.7246 15.8677 16.7165 15.6514 16.5208C15.5933 16.4683 15.5615 16.3639 15.5618 16.2933C15.5624 16.1588 15.6585 16.0796 15.7809 16.03L15.8967 16.2104C15.8463 16.2277 15.8175 16.2481 15.8174 16.2698C15.817 16.372 16.5993 16.4419 17.1976 16.4344C17.7961 16.427 18.5192 16.3781 18.5198 16.2774C18.5198 16.2469 18.4651 16.2183 18.37 16.1956L18.4853 16.0165C18.6403 16.0643 18.7757 16.1567 18.7754 16.3166C18.7739 16.5885 18.4256 16.6298 18.1997 16.6603Z" fill="#45465A"/>
<path d="M26.7299 2.37686C26.897 2.18513 26.6434 1.69474 26.1636 1.28167C25.6835 0.868822 25.1589 0.689448 24.9915 0.881171C24.8243 1.07289 25.078 1.56329 25.558 1.97614C26.0379 2.3891 26.5627 2.56868 26.7299 2.37686Z" fill="#30313E"/>
<path d="M26.7299 2.37686C26.897 2.18513 26.6434 1.69474 26.1636 1.28167C25.6835 0.868822 25.1589 0.689448 24.9915 0.881171C24.8243 1.07289 25.078 1.56329 25.558 1.97614C26.0379 2.3891 26.5627 2.56868 26.7299 2.37686Z" fill="#30313E"/>
<path d="M20.3816 35.0995C20.2241 33.5942 23.6959 31.4141 22.8049 31.3443C20.8869 31.4532 19.9322 33.5774 18.9672 35.8021C18.6135 36.6174 17.4035 40.0941 16.6098 39.6661C15.8164 39.2383 17.6385 36.3793 18.1492 34.6814C17.5599 35.1107 15.3988 36.7788 14.8418 35.2166C13.9464 35.9721 12.0331 36.3814 12.2489 34.3969C11.7725 35.2352 10.7034 36.4055 9.42013 35.9192C7.73485 35.2807 10.3967 29.9475 11.0585 30.2166C11.7205 30.4855 10.925 31.7004 10.7166 32.1722C10.2583 33.2105 9.72899 34.5157 10.0826 34.7828C10.6885 35.2406 12.3371 33.0512 12.3737 33.003C12.6821 32.5983 13.5605 29.9508 14.2686 30.2548C14.9766 30.5588 12.5026 34.0545 13.4276 34.7482C13.6142 34.8882 14.3775 34.6619 14.8418 34.1628C15.1423 33.8399 15.0389 33.1248 16.0404 30.7522C17.0419 28.3796 17.9345 25.4249 18.6213 25.65C19.3082 25.875 18.7421 27.3915 18.4957 27.9568C17.3394 30.6102 15.34 34.9937 16.2829 34.6619C17.2259 34.3301 17.7169 34.3107 18.6402 33.2372C19.5635 32.1638 19.521 30.3957 20.1364 30.4333C20.752 30.471 20.6487 31.0379 20.4994 31.4696C21.1051 30.781 23.3706 29.3307 23.9176 30.767C24.5654 32.4675 20.6763 34.9238 21.646 34.7985C22.5914 34.6764 24.1231 33.7127 24.7771 32.8364L26.5772 16.7592C26.5772 16.7592 24.7658 18.2484 13.2419 18.2484C1.71785 18.2484 0.0938721 16.7901 0.0938721 16.7901L1.62641 31.4649C2.43987 29.1681 4.37155 24.5223 7.41639 24.6783C8.80145 24.7492 10.6504 27.3987 9.0666 27.4885C8.39619 27.5264 8.32814 26.166 7.53427 25.9662C6.96141 25.822 6.16386 26.2847 5.64841 26.786C4.62047 27.7854 2.40963 31.7286 2.70175 33.6945C3.07393 36.2008 6.18314 32.8236 6.70922 31.8209C7.07971 31.1146 7.33001 29.022 8.14031 29.2415C8.95072 29.4611 8.06963 31.6207 7.48223 33.5301C6.82236 35.6741 6.47547 37.9357 5.64841 37.6755C4.82126 37.4156 6.1686 34.6477 6.11983 34.1628C5.34239 34.8754 3.91014 36.6793 2.0778 35.7865L3.02958 44.8993C3.02958 44.8993 5.55919 46.8849 13.1794 46.8849C20.7996 46.8849 23.4229 44.9303 23.4229 44.9303L24.6047 34.3754C23.6378 35.3108 20.5776 36.9719 20.3816 35.0995Z" fill="#42A3F6"/>
<path d="M20.3816 35.0995C20.2241 33.5942 23.6959 31.4141 22.8049 31.3443C20.8869 31.4532 19.9322 33.5774 18.9672 35.8021C18.6135 36.6174 17.4035 40.0941 16.6098 39.6661C15.8164 39.2383 17.6385 36.3793 18.1492 34.6814C17.5599 35.1107 15.3988 36.7788 14.8418 35.2166C13.9464 35.9721 12.0331 36.3814 12.2489 34.3969C11.7725 35.2352 10.7034 36.4055 9.42013 35.9192C7.73485 35.2807 10.3967 29.9475 11.0585 30.2166C11.7205 30.4855 10.925 31.7004 10.7166 32.1722C10.2583 33.2105 9.72899 34.5157 10.0826 34.7828C10.6885 35.2406 12.3371 33.0512 12.3737 33.003C12.6821 32.5983 13.5605 29.9508 14.2686 30.2548C14.9766 30.5588 12.5026 34.0545 13.4276 34.7482C13.6142 34.8882 14.3775 34.6619 14.8418 34.1628C15.1423 33.8399 15.0389 33.1248 16.0404 30.7522C17.0419 28.3796 17.9345 25.4249 18.6213 25.65C19.3082 25.875 18.7421 27.3915 18.4957 27.9568C17.3394 30.6102 15.34 34.9937 16.2829 34.6619C17.2259 34.3301 17.7169 34.3107 18.6402 33.2372C19.5635 32.1638 19.521 30.3957 20.1364 30.4333C20.752 30.471 20.6487 31.0379 20.4994 31.4696C21.1051 30.781 23.3706 29.3307 23.9176 30.767C24.5654 32.4675 20.6763 34.9238 21.646 34.7985C22.5914 34.6764 24.1231 33.7127 24.7771 32.8364L26.5772 16.7592C26.5772 16.7592 24.7658 18.2484 13.2419 18.2484C1.71785 18.2484 0.0938721 16.7901 0.0938721 16.7901L1.62641 31.4649C2.43987 29.1681 4.37155 24.5223 7.41639 24.6783C8.80145 24.7492 10.6504 27.3987 9.0666 27.4885C8.39619 27.5264 8.32814 26.166 7.53427 25.9662C6.96141 25.822 6.16386 26.2847 5.64841 26.786C4.62047 27.7854 2.40963 31.7286 2.70175 33.6945C3.07393 36.2008 6.18314 32.8236 6.70922 31.8209C7.07971 31.1146 7.33001 29.022 8.14031 29.2415C8.95072 29.4611 8.06963 31.6207 7.48223 33.5301C6.82236 35.6741 6.47547 37.9357 5.64841 37.6755C4.82126 37.4156 6.1686 34.6477 6.11983 34.1628C5.34239 34.8754 3.91014 36.6793 2.0778 35.7865L3.02958 44.8993C3.02958 44.8993 5.55919 46.8849 13.1794 46.8849C20.7996 46.8849 23.4229 44.9303 23.4229 44.9303L24.6047 34.3754C23.6378 35.3108 20.5776 36.9719 20.3816 35.0995Z" fill="#42A3F6"/>
</svg>
