<svg width="46" height="58" viewBox="0 0 46 58" fill="none" xmlns="http://www.w3.org/2000/svg">
<path d="M22.9009 0L0 2.39794V44.3772L22.9009 58L45.8019 44.3772V2.39794L23.1366 0.029L22.9009 0ZM42.8004 42.6699L22.9009 54.5164L3.0015 42.6699V25.4692L22.8158 37.2596L22.8448 39.4019L9.251 31.3019L9.23288 33.3881L22.8828 41.5914L22.9209 43.7809L9.27094 35.6628L9.25281 37.7399L22.9028 45.9432L36.685 37.6927V35.6066L36.6669 35.6156V28.8369L42.8022 25.1738L42.8004 42.6699ZM42.7913 22.9481L34.8326 27.6406L22.8429 20.503L22.8248 22.5801L33.0673 28.6683L32.9821 28.7245L32.7555 28.8568L31.3019 29.7159L22.8429 24.6844L22.8248 26.7525L29.4984 30.7273L27.9216 31.784L27.8835 31.8021L22.8429 28.8278L22.8248 30.9049L26.129 32.8588L22.7596 34.8797L3.03956 23.1547L22.7886 11.2882L42.7913 22.9481ZM42.8004 20.8619L22.7868 9.0625L2.99969 20.8438V5.09675L22.8991 3.01056L42.8076 5.09675V20.8528L42.8004 20.8619Z" fill="white"/>
</svg>
