<svg width="56" height="56" viewBox="0 0 56 56" fill="none" xmlns="http://www.w3.org/2000/svg">
<path d="M49.1922 11.7668L47.8781 10.4527L38.7018 1.27545C38.7008 1.27448 38.7008 1.27448 38.7008 1.27448L37.9564 0.530069C37.6137 0.188276 37.1589 0 36.6752 0H8.65395C7.50788 0 6.27588 0.884414 6.27588 2.8251V37.6552V53.6219V54.069C6.27588 54.8771 7.08788 55.664 8.04857 55.9121C8.09781 55.9257 8.14512 55.944 8.19533 55.9537C8.34595 55.9836 8.49947 56 8.65395 56H47.3461C47.5006 56 47.6541 55.9836 47.8047 55.9537C47.8549 55.944 47.9022 55.9257 47.9515 55.9121C48.9122 55.664 49.7242 54.8771 49.7242 54.069V53.6219V37.6552V13.496C49.7242 12.7554 49.6344 12.208 49.1922 11.7668ZM38.1379 3.44207L46.2821 11.5862H38.1379V3.44207ZM8.65395 54.069C8.5854 54.069 8.5236 54.0448 8.46278 54.0217C8.31312 53.9502 8.20691 53.7996 8.20691 53.6219V39.5862H47.7931V53.6219C47.7931 53.7996 47.6869 53.9502 47.5373 54.0217C47.4764 54.0448 47.4146 54.069 47.3461 54.069H8.65395ZM8.20691 37.6552V2.8251C8.20691 2.61559 8.23878 1.93103 8.65395 1.93103H36.2629C36.2311 2.05269 36.2069 2.17821 36.2069 2.30855V13.3048C35.6933 12.8414 35.0203 12.5517 34.2759 12.5517C33.7419 12.5517 33.3104 12.9843 33.3104 13.5172C33.3104 14.0502 33.7419 14.4828 34.2759 14.4828C34.8088 14.4828 35.2414 14.9163 35.2414 15.4483V19.3103C35.2414 20.469 35.7647 21.4982 36.5757 22.2069C35.7647 22.9156 35.2414 23.9448 35.2414 25.1034V28.9655C35.2414 29.4975 34.8088 29.931 34.2759 29.931C33.7419 29.931 33.3104 30.3636 33.3104 30.8966C33.3104 31.4295 33.7419 31.8621 34.2759 31.8621C35.8728 31.8621 37.1724 30.5625 37.1724 28.9655V25.1034C37.1724 24.0385 38.0385 23.1724 39.1035 23.1724C39.6374 23.1724 40.069 22.7399 40.069 22.2069C40.069 21.6739 39.6374 21.2414 39.1035 21.2414C38.0385 21.2414 37.1724 20.3753 37.1724 19.3103V15.4483C37.1724 14.7039 36.8818 14.0309 36.4193 13.5172H47.4156C47.546 13.5172 47.6715 13.4931 47.7931 13.4612C47.7931 13.4757 47.7941 13.4815 47.7941 13.496V37.6552H8.20691Z" fill="#7798CE"/>
<path d="M24.4797 49.6565C24.4614 50.0872 24.3146 50.3942 24.0375 50.5738C23.7604 50.7534 23.3877 50.8441 22.9224 50.8441C22.7379 50.8441 22.54 50.8229 22.3286 50.7785C22.1171 50.7341 21.9144 50.6839 21.7213 50.6269C21.5272 50.569 21.3495 50.5081 21.1864 50.4425C21.0232 50.3768 20.8977 50.3121 20.8098 50.2513L20.1368 51.3201C20.3126 51.4524 20.5279 51.5712 20.7837 51.6764C21.0386 51.7816 21.3051 51.8763 21.5822 51.9603C21.8593 52.0443 22.1277 52.1051 22.3875 52.1447C22.6472 52.1843 22.8731 52.2045 23.0672 52.2045C23.4534 52.2045 23.8309 52.1669 24.1959 52.0925C24.5608 52.0182 24.8843 51.8859 25.1662 51.6967C25.4472 51.5074 25.6712 51.2564 25.8392 50.9445C26.0062 50.6327 26.0902 50.2465 26.0902 49.7898V42.2124H24.4797V49.6565Z" fill="#7798CE"/>
<path d="M32.9077 47.3721C32.6046 47.152 32.2763 46.9647 31.9239 46.8112C31.5715 46.6576 31.2461 46.4993 30.9468 46.3361C30.6465 46.173 30.3964 45.9847 30.1946 45.7684C29.9919 45.5521 29.8915 45.2683 29.8915 44.9168C29.8915 44.7759 29.9262 44.6281 29.9967 44.4746C30.0662 44.3211 30.1637 44.1821 30.2873 44.0585C30.4099 43.9349 30.5509 43.8325 30.7102 43.7485C30.8695 43.6645 31.0356 43.6143 31.2123 43.597C31.529 43.5709 31.7887 43.5661 31.9915 43.5834C32.1932 43.6018 32.3564 43.6317 32.48 43.6761C32.6026 43.7205 32.6982 43.764 32.7639 43.8084C32.8295 43.8528 32.8894 43.8876 32.9425 43.9136C32.9512 43.905 32.9772 43.8605 33.0217 43.7814C33.0651 43.7022 33.1182 43.6028 33.18 43.484C33.2408 43.3652 33.3075 43.2378 33.3779 43.1016C33.4475 42.9645 33.5102 42.84 33.5624 42.7251C33.3065 42.5581 32.9724 42.4364 32.5592 42.3621C32.145 42.2877 31.7356 42.2501 31.332 42.2501C30.9361 42.2501 30.5596 42.3109 30.2033 42.4345C29.847 42.5581 29.5352 42.7367 29.2658 42.9694C28.9964 43.2021 28.784 43.4859 28.6257 43.821C28.4673 44.156 28.3862 44.5393 28.3862 44.9699C28.3862 45.445 28.4866 45.8408 28.6894 46.1575C28.8912 46.4742 29.147 46.7494 29.455 46.9821C29.7621 47.2147 30.0923 47.4175 30.4447 47.5894C30.7961 47.7612 31.1244 47.9321 31.4286 48.104C31.7327 48.2759 31.9847 48.467 32.1875 48.6785C32.3892 48.8899 32.4906 49.1448 32.4906 49.4441C32.4906 49.9375 32.3477 50.3092 32.0619 50.5593C31.7761 50.8094 31.3639 50.9359 30.828 50.9359C30.6513 50.9359 30.4621 50.9175 30.2603 50.8827C30.0575 50.848 29.8548 50.8016 29.653 50.7437C29.4502 50.6858 29.2552 50.625 29.0659 50.5593C28.8767 50.4936 28.7203 50.4251 28.5977 50.3546L28.3206 51.4901C28.4692 51.6223 28.6488 51.7343 28.8555 51.827C29.0621 51.9197 29.2793 51.9921 29.5091 52.0452C29.737 52.0983 29.9648 52.136 30.1888 52.1572C30.4128 52.1785 30.631 52.1901 30.8425 52.1901C31.3349 52.1901 31.7752 52.1157 32.1623 51.9661C32.5486 51.8164 32.8749 51.6165 33.1395 51.3655C33.404 51.1145 33.6077 50.8239 33.7535 50.4946C33.8993 50.1654 33.9717 49.8236 33.9717 49.4712C33.9717 48.9517 33.8703 48.5269 33.6686 48.1976C33.4639 47.8674 33.2109 47.5923 32.9077 47.3721Z" fill="#7798CE"/>
<path d="M19.7932 19.3103V15.4482C19.7932 14.9162 20.2257 14.4827 20.7587 14.4827C21.2926 14.4827 21.7242 14.0502 21.7242 13.5172C21.7242 12.9842 21.2926 12.5517 20.7587 12.5517C19.1617 12.5517 17.8621 13.8513 17.8621 15.4482V19.3103C17.8621 20.3753 16.9961 21.2414 15.9311 21.2414C15.3972 21.2414 14.9656 21.6739 14.9656 22.2069C14.9656 22.7398 15.3972 23.1724 15.9311 23.1724C16.9961 23.1724 17.8621 24.0385 17.8621 25.1034V28.9655C17.8621 30.5625 19.1617 31.862 20.7587 31.862C21.2926 31.862 21.7242 31.4295 21.7242 30.8965C21.7242 30.3636 21.2926 29.931 20.7587 29.931C20.2257 29.931 19.7932 29.4975 19.7932 28.9655V25.1034C19.7932 23.9448 19.2699 22.9156 18.4588 22.2069C19.2699 21.4982 19.7932 20.4689 19.7932 19.3103Z" fill="#7798CE"/>
<path d="M27.5172 20.2759C28.3171 20.2759 28.9655 19.6275 28.9655 18.8276C28.9655 18.0277 28.3171 17.3793 27.5172 17.3793C26.7174 17.3793 26.069 18.0277 26.069 18.8276C26.069 19.6275 26.7174 20.2759 27.5172 20.2759Z" fill="#7798CE"/>
<path d="M27.5173 24.1379C26.9833 24.1379 26.5518 24.5705 26.5518 25.1035V28C26.5518 28.533 26.9833 28.9655 27.5173 28.9655C28.0512 28.9655 28.4828 28.533 28.4828 28V25.1035C28.4828 24.5705 28.0512 24.1379 27.5173 24.1379Z" fill="#7798CE"/>
</svg>
