<svg width="34" height="34" viewBox="0 0 34 34" fill="none" xmlns="http://www.w3.org/2000/svg">
<path d="M4.14259 18.0762H2.01435C1.4265 18.0762 0.950195 17.5946 0.950195 17.0001C0.950195 16.4057 1.4265 15.924 2.01435 15.924H4.14259C4.73044 15.924 5.20674 16.4057 5.20674 17.0001C5.20674 17.5946 4.73044 18.0762 4.14259 18.0762Z" fill="#FFB319"/>
<path d="M32.5193 18.0762H30.3911C29.8032 18.0762 29.3269 17.5946 29.3269 17.0001C29.3269 16.4057 29.8032 15.924 30.3911 15.924H32.5193C33.1068 15.924 33.5835 16.4057 33.5835 17.0001C33.5835 17.5946 33.1068 18.0762 32.5193 18.0762Z" fill="#FFB319"/>
<path d="M17.267 33.5C16.6792 33.5 16.2029 33.0183 16.2029 32.4238V30.2717C16.2029 29.6772 16.6792 29.1956 17.267 29.1956C17.8549 29.1956 18.3312 29.6772 18.3312 30.2717V32.4238C18.3312 33.0183 17.8549 33.5 17.267 33.5Z" fill="#FFB319"/>
<path d="M17.267 4.80437C16.6792 4.80437 16.2029 4.32272 16.2029 3.72826V1.57611C16.2029 0.981658 16.6792 0.5 17.267 0.5C17.8549 0.5 18.3312 0.981658 18.3312 1.57611V3.72826C18.3312 4.32272 17.8549 4.80437 17.267 4.80437Z" fill="#FFB319"/>
<path d="M24.8944 31.434C24.5265 31.434 24.169 31.241 23.9719 30.8956L22.9078 29.0318C22.6136 28.5172 22.7883 27.859 23.2971 27.562C23.8077 27.2643 24.4572 27.4414 24.7505 27.9556L25.8147 29.8195C26.1088 30.3341 25.9342 30.9923 25.4254 31.2893C25.2578 31.3875 25.0748 31.434 24.8944 31.434Z" fill="#FFB319"/>
<path d="M10.7056 6.5827C10.3378 6.5827 9.98026 6.38972 9.78318 6.04432L8.71903 4.18046C8.42495 3.66587 8.59953 3.00767 9.1084 2.71067C9.61861 2.4136 10.2685 2.58982 10.5619 3.10435L11.626 4.96821C11.9202 5.4828 11.7455 6.141 11.2367 6.438C11.069 6.53616 10.8861 6.5827 10.7056 6.5827Z" fill="#FFB319"/>
<path d="M30.4752 25.7883C30.2947 25.7883 30.1118 25.7417 29.9442 25.6436L28.1011 24.5675C27.5922 24.2704 27.4176 23.6123 27.7118 23.0977C28.0055 22.5831 28.6563 22.4065 29.1652 22.704L31.0084 23.7801C31.5172 24.0772 31.6918 24.7353 31.3977 25.2499C31.2005 25.595 30.843 25.7883 30.4752 25.7883Z" fill="#FFB319"/>
<path d="M5.89976 11.4405C5.71926 11.4405 5.5364 11.3939 5.36877 11.2958L3.52562 10.2196C3.01674 9.92258 2.84217 9.26445 3.13631 8.74986C3.43046 8.23597 4.08064 8.05873 4.58977 8.35618L6.43292 9.43229C6.9418 9.72935 7.11637 10.3875 6.82223 10.9021C6.62509 11.2471 6.26759 11.4405 5.89976 11.4405Z" fill="#FFB319"/>
<path d="M28.634 11.4407C28.2661 11.4407 27.9086 11.2477 27.7115 10.9023C27.4173 10.3877 27.592 9.7295 28.1008 9.4325L29.9439 8.35639C30.4539 8.05894 31.1041 8.23522 31.3974 8.75007C31.6915 9.26466 31.5169 9.92286 31.0081 10.2199L29.165 11.296C28.9974 11.394 28.8144 11.4407 28.634 11.4407Z" fill="#FFB319"/>
<path d="M4.05876 25.7882C3.69087 25.7882 3.33337 25.5953 3.1363 25.2499C2.84215 24.7353 3.01679 24.0771 3.5256 23.7801L5.36881 22.704C5.87839 22.4065 6.52895 22.5831 6.82227 23.0977C7.11642 23.6122 6.94178 24.2704 6.43297 24.5674L4.58982 25.6435C4.42213 25.7416 4.23927 25.7882 4.05876 25.7882Z" fill="#FFB319"/>
<path d="M23.8279 6.58276C23.6473 6.58276 23.4645 6.53623 23.2969 6.43807C22.788 6.141 22.6134 5.48287 22.9076 4.96828L23.9717 3.10442C24.2658 2.59054 24.9166 2.41361 25.4251 2.71074C25.934 3.00781 26.1086 3.66594 25.8144 4.18053L24.7503 6.04439C24.5532 6.3894 24.1957 6.58276 23.8279 6.58276Z" fill="#FFB319"/>
<path d="M9.63938 31.434C9.45887 31.434 9.27601 31.3875 9.10838 31.2893C8.59951 30.9923 8.42493 30.3341 8.71908 29.8195L9.78323 27.9557C10.077 27.4415 10.7282 27.2642 11.2367 27.562C11.7456 27.8591 11.9201 28.5172 11.626 29.0318L10.5618 30.8956C10.3648 31.2407 10.0073 31.434 9.63938 31.434Z" fill="#FFB319"/>
<path fill-rule="evenodd" clip-rule="evenodd" d="M7.33496 17C7.33496 22.5381 11.7903 27.0435 17.2668 27.0435C22.7434 27.0435 27.1987 22.5381 27.1987 17C27.1987 11.462 22.7434 6.95657 17.2668 6.95657C11.7903 6.95657 7.33496 11.462 7.33496 17ZM16.186 12.32C16.7749 12.32 17.2501 11.8393 17.2501 11.2439C17.2501 10.6485 16.7748 10.1679 16.1859 10.1679C13.0574 10.1679 10.5106 12.7433 10.5106 15.907C10.5106 16.5025 10.9859 16.9831 11.5747 16.9831C12.1637 16.9831 12.6389 16.5024 12.6389 15.907C12.6389 13.927 14.228 12.32 16.186 12.32Z" fill="#FFB319"/>
</svg>
