<svg width="32" height="32" viewBox="0 0 32 32" fill="none" xmlns="http://www.w3.org/2000/svg">
<path d="M15.9375 0C7.14937 0 0 7.14937 0 15.9375C0 24.7256 7.14937 32 15.9375 32C24.7256 32 32 24.7256 32 15.9375C32 7.14937 24.7256 0 15.9375 0ZM22.625 20.625C21.3579 20.625 20.2405 19.9899 19.5614 19.0252C18.7019 19.9982 17.4596 20.625 16.0625 20.625C13.4779 20.625 11.375 18.5221 11.375 15.9375C11.375 13.3529 13.4779 11.25 16.0625 11.25C17.1217 11.25 18.0891 11.6166 18.875 12.2114V12.1875C18.875 11.6693 19.2943 11.25 19.8125 11.25C20.3307 11.25 20.75 11.6693 20.75 12.1875C20.75 14.2725 20.75 14.7891 20.75 16.875C20.75 17.9086 21.5914 18.75 22.625 18.75C23.6586 18.75 24.5 17.9086 24.5 16.875C24.5 10.6006 20.348 7.5 16.0625 7.5C11.4098 7.5 7.625 11.2848 7.625 15.9375C7.625 20.5902 11.4098 24.375 16.0625 24.375C17.9375 24.375 19.7109 23.7744 21.1913 22.6373C22.1802 21.8824 23.3126 23.3726 22.3339 24.1241C20.5221 25.5148 18.3541 26.25 16.0625 26.25C10.3762 26.25 5.75 21.6238 5.75 15.9375C5.75 10.2512 10.3762 5.625 16.0625 5.625C21.2436 5.625 26.375 9.44594 26.375 16.875C26.375 18.9432 24.6932 20.625 22.625 20.625Z" fill="#464646"/>
</svg>
