<svg width="56" height="56" viewBox="0 0 56 56" fill="none" xmlns="http://www.w3.org/2000/svg">
<g clip-path="url(#clip0_42_1121)">
<path d="M54.7826 21.913C55.4549 21.913 56 21.3679 56 20.6956C56 20.0233 55.4549 19.4782 54.7826 19.4782H51.1304V7.30434H54.7826C55.4549 7.30434 56 6.75926 56 6.08691C56 5.41457 55.4549 4.8696 54.7826 4.8696H51.1304V1.21743C51.1304 0.545087 50.5853 0 49.913 0C49.2406 0 48.6955 0.545087 48.6955 1.21743V4.8696H36.5217V1.21743C36.5217 0.545087 35.9766 0 35.3043 0C34.6319 0 34.0869 0.545087 34.0869 1.21743V4.8696H21.913V1.21743C21.913 0.545087 21.3679 0 20.6956 0C20.0233 0 19.4782 0.545087 19.4782 1.21743V4.8696H7.30434V1.21743C7.30434 0.545087 6.75926 0 6.08691 0C5.41457 0 4.8696 0.545087 4.8696 1.21743V4.8696H1.21743C0.545087 4.8696 0 5.41457 0 6.08691C0 6.75926 0.545087 7.30434 1.21743 7.30434H4.8696V19.4783H1.21743C0.545087 19.4783 0 20.0233 0 20.6956C0 21.3679 0.545087 21.913 1.21743 21.913H4.8696V34.087H1.21743C0.545087 34.087 0 34.6319 0 35.3043C0 35.9766 0.545087 36.5217 1.21743 36.5217H4.8696V48.6957H1.21743C0.545087 48.6957 0 49.2406 0 49.913C0 50.5853 0.545087 51.1304 1.21743 51.1304H4.8696V54.7826C4.8696 55.4549 5.41469 56 6.08703 56C6.75937 56 7.30434 55.4549 7.30434 54.7826V51.1304H19.4783V54.7826C19.4783 55.4549 20.0234 56 20.6957 56C21.3681 56 21.9131 55.4549 21.9131 54.7826V51.1304H34.0871V54.7826C34.0871 55.4549 34.6322 56 35.3045 56C35.9769 56 36.5217 55.4549 36.5217 54.7826V51.1304H48.6957V54.7826C48.6957 55.4549 49.2407 56 49.9131 56C50.5854 56 51.1304 55.4549 51.1304 54.7826V51.1304H54.7826C55.4549 51.1304 56 50.5853 56 49.913C56 49.2406 55.4549 48.6955 54.7826 48.6955H51.1304V36.5217H54.7826C55.4549 36.5217 56 35.9766 56 35.3043C56 34.6319 55.4549 34.0869 54.7826 34.0869H51.1304V21.913H54.7826ZM48.6957 7.30434V19.4783H36.5217V7.30434H48.6957ZM34.087 7.30434V19.4783H21.913V7.30434H34.087ZM34.087 21.913V34.087H21.913V21.913H34.087ZM7.30434 7.30434H19.4783V19.4783H7.30434V7.30434ZM7.30434 21.913H19.4783V34.087H7.30434V21.913ZM7.30434 48.6957V36.5217H19.4783V48.6957H7.30434ZM21.913 48.6957V36.5217H34.087V48.6957H21.913ZM48.6957 48.6957H36.5217V36.5217H48.6957V48.6957ZM48.6957 34.087H36.5217V21.913H48.6957V34.087Z" fill="#455A64"/>
<path d="M6.08694 56C5.41459 56 4.86951 55.4549 4.86951 54.7826V1.21743C4.86962 0.545087 5.41459 0 6.08694 0C6.75928 0 7.30436 0.545087 7.30436 1.21743V54.7826C7.30436 55.4549 6.75928 56 6.08694 56Z" fill="#7798CE"/>
<path d="M20.6956 56C20.0232 56 19.4781 55.4549 19.4781 54.7826V1.21743C19.4783 0.545087 20.0232 0 20.6956 0C21.3679 0 21.913 0.545087 21.913 1.21743V54.7826C21.913 55.4549 21.3679 56 20.6956 56Z" fill="#7798CE"/>
<path d="M35.3043 56C34.632 56 34.0869 55.4549 34.0869 54.7826V1.21743C34.087 0.545087 34.632 0 35.3043 0C35.9767 0 36.5218 0.545087 36.5218 1.21743V54.7826C36.5218 55.4549 35.9767 56 35.3043 56Z" fill="#7798CE"/>
<path d="M49.913 56C49.2406 56 48.6956 55.4549 48.6956 54.7826V1.21743C48.6957 0.545087 49.2406 0 49.913 0C50.5853 0 51.1304 0.545087 51.1304 1.21743V54.7826C51.1304 55.4549 50.5853 56 49.913 56Z" fill="#7798CE"/>
<path d="M54.7826 51.1304H1.21743C0.545087 51.1304 0 50.5853 0 49.913C0 49.2406 0.545087 48.6956 1.21743 48.6956H54.7826C55.4549 48.6956 56 49.2406 56 49.913C56 50.5853 55.4549 51.1304 54.7826 51.1304Z" fill="#7798CE"/>
<path d="M54.7826 36.5217H1.21743C0.545087 36.5217 0 35.9766 0 35.3043C0 34.6319 0.545087 34.0869 1.21743 34.0869H54.7826C55.4549 34.0869 56 34.6319 56 35.3043C56 35.9766 55.4549 36.5217 54.7826 36.5217Z" fill="#7798CE"/>
<path d="M54.7826 21.913H1.21743C0.545087 21.913 0 21.3679 0 20.6956C0 20.0232 0.545087 19.4781 1.21743 19.4781H54.7826C55.4549 19.4781 56 20.0232 56 20.6956C56 21.3679 55.4549 21.913 54.7826 21.913Z" fill="#7798CE"/>
<path d="M54.7826 7.3043H1.21743C0.545087 7.3043 0 6.75922 0 6.08687C0 5.41453 0.545087 4.86945 1.21743 4.86945H54.7826C55.4549 4.86945 56 5.41453 56 6.08687C56 6.75922 55.4549 7.3043 54.7826 7.3043Z" fill="#7798CE"/>
</g>
<defs>
<clipPath id="clip0_42_1121">
<rect width="56" height="56" fill="white"/>
</clipPath>
</defs>
</svg>
