<svg width="56" height="56" viewBox="0 0 56 56" fill="none" xmlns="http://www.w3.org/2000/svg">
<path d="M49.1922 11.7668L47.8781 10.4527L38.7018 1.27545C38.7008 1.27448 38.7008 1.27448 38.6999 1.27448L37.9564 0.530069C37.6137 0.188276 37.1589 0 36.6752 0H8.65395C7.50788 0 6.27588 0.884414 6.27588 2.8251V37.6552V53.6219V54.069C6.27588 54.8771 7.08788 55.664 8.04857 55.9121C8.09781 55.9257 8.14512 55.944 8.19533 55.9537C8.34595 55.9836 8.49947 56 8.65395 56H47.3461C47.5006 56 47.6541 55.9836 47.8047 55.9537C47.8549 55.944 47.9022 55.9257 47.9515 55.9121C48.9122 55.664 49.7242 54.8771 49.7242 54.069V53.6219V37.6552V13.496C49.7242 12.7554 49.6344 12.208 49.1922 11.7668ZM38.1379 3.44207L46.2821 11.5862H38.1379V3.44207ZM8.65395 54.069C8.5854 54.069 8.5236 54.0448 8.46278 54.0217C8.31312 53.9502 8.20691 53.7996 8.20691 53.6219V39.5862H47.7931V53.6219C47.7931 53.7996 47.6869 53.9502 47.5373 54.0217C47.4764 54.0448 47.4146 54.069 47.3461 54.069H8.65395ZM8.20691 37.6552V2.8251C8.20691 2.61559 8.23878 1.93103 8.65395 1.93103H36.2629C36.2311 2.05269 36.2069 2.17821 36.2069 2.30855V13.3048C35.6933 12.8414 35.0203 12.5517 34.2759 12.5517C33.7419 12.5517 33.3104 12.9843 33.3104 13.5172C33.3104 14.0502 33.7419 14.4828 34.2759 14.4828C34.8088 14.4828 35.2414 14.9163 35.2414 15.4483V19.3103C35.2414 20.469 35.7647 21.4982 36.5757 22.2069C35.7647 22.9156 35.2414 23.9448 35.2414 25.1034V28.9655C35.2414 29.4975 34.8088 29.931 34.2759 29.931C33.7419 29.931 33.3104 30.3636 33.3104 30.8966C33.3104 31.4295 33.7419 31.8621 34.2759 31.8621C35.8728 31.8621 37.1724 30.5625 37.1724 28.9655V25.1034C37.1724 24.0385 38.0385 23.1724 39.1035 23.1724C39.6374 23.1724 40.069 22.7399 40.069 22.2069C40.069 21.6739 39.6374 21.2414 39.1035 21.2414C38.0385 21.2414 37.1724 20.3753 37.1724 19.3103V15.4483C37.1724 14.7039 36.8818 14.0309 36.4193 13.5172H47.4156C47.546 13.5172 47.6715 13.4931 47.7931 13.4612C47.7931 13.4757 47.7941 13.4815 47.7941 13.496V37.6552H8.20691Z" fill="#7798CE"/>
<path d="M19.3431 44.3694C19.5758 44.0739 19.8404 43.8664 20.1349 43.7428C20.4294 43.6192 20.7402 43.5584 21.0656 43.5584C21.3562 43.5584 21.6353 43.6163 21.9037 43.7302C22.1721 43.8441 22.4164 44.0295 22.6365 44.2844L23.7324 43.3073C23.3713 42.9559 22.9619 42.6913 22.5052 42.5156C22.0485 42.3399 21.5551 42.252 21.027 42.252C20.4545 42.252 19.9225 42.3592 19.43 42.5755C18.9376 42.7917 18.508 43.1055 18.143 43.5197C17.778 43.9339 17.4913 44.4505 17.2847 45.0704C17.078 45.6912 16.9747 46.4105 16.9747 47.2283C16.9747 48.0461 17.078 48.7683 17.2847 49.393C17.4913 50.0177 17.778 50.5371 18.143 50.9504C18.508 51.3636 18.9347 51.6764 19.4233 51.8879C19.9118 52.0993 20.4467 52.2046 21.027 52.2046C21.5551 52.2046 22.0485 52.1167 22.5052 51.941C22.9619 51.7653 23.3713 51.5007 23.7324 51.1493L22.6365 50.1857C22.4077 50.4415 22.1547 50.6259 21.8776 50.7399C21.6005 50.8538 21.3031 50.9117 20.9865 50.9117C20.6698 50.9117 20.3676 50.8441 20.0818 50.707C19.796 50.5699 19.5401 50.3556 19.3161 50.0601C19.0921 49.7647 18.9154 49.3853 18.788 48.9179C18.6605 48.4506 18.592 47.8887 18.5833 47.2283C18.592 46.5505 18.6625 45.9789 18.7947 45.5126C18.927 45.0462 19.1105 44.6648 19.3431 44.3694Z" fill="#7798CE"/>
<path d="M30.4447 47.3721C30.1416 47.152 29.8133 46.9647 29.4609 46.8112C29.1085 46.6576 28.7831 46.4993 28.4838 46.3361C28.1845 46.173 27.9344 45.9847 27.7316 45.7684C27.5289 45.5521 27.4285 45.2683 27.4285 44.9168C27.4285 44.7759 27.4632 44.6281 27.5337 44.4746C27.6042 44.3211 27.7007 44.1821 27.8243 44.0585C27.9479 43.9349 28.0879 43.8325 28.2472 43.7485C28.4065 43.6645 28.5726 43.6143 28.7493 43.597C29.066 43.5709 29.3257 43.5661 29.5285 43.5834C29.7312 43.6008 29.8934 43.6317 30.017 43.6761C30.1406 43.7205 30.2352 43.764 30.3009 43.8084C30.3665 43.8528 30.4264 43.8876 30.4795 43.9136C30.4882 43.905 30.5142 43.8605 30.5587 43.7814C30.6031 43.7022 30.6562 43.6028 30.717 43.484C30.7788 43.3652 30.8445 43.2378 30.9149 43.1016C30.9854 42.9655 31.0472 42.84 31.0994 42.7251C30.8435 42.5581 30.5104 42.4364 30.0962 42.3621C29.682 42.2877 29.2726 42.2501 28.869 42.2501C28.4731 42.2501 28.0966 42.3109 27.7403 42.4345C27.384 42.5581 27.0722 42.7367 26.8028 42.9694C26.5334 43.2021 26.321 43.4859 26.1627 43.821C26.0043 44.156 25.9252 44.5383 25.9252 44.969C25.9252 45.444 26.0256 45.8399 26.2283 46.1565C26.4311 46.4732 26.686 46.7484 26.994 46.9811C27.302 47.2138 27.6322 47.4165 27.9836 47.5884C28.3351 47.7603 28.6634 47.9312 28.9675 48.103C29.2716 48.2749 29.5236 48.4661 29.7264 48.6775C29.9291 48.889 30.0296 49.1439 30.0296 49.4432C30.0296 49.9365 29.8867 50.3083 29.6009 50.5583C29.3151 50.8084 28.9028 50.9349 28.3669 50.9349C28.1903 50.9349 28.002 50.9165 27.7992 50.8818C27.5965 50.847 27.3947 50.8007 27.1919 50.7427C26.9892 50.6848 26.7941 50.624 26.6049 50.5583C26.4156 50.4927 26.2602 50.4241 26.1366 50.3536L25.8595 51.4891C26.0092 51.6214 26.1878 51.7334 26.3944 51.8261C26.601 51.9187 26.8183 51.9912 27.048 52.0443C27.2778 52.0974 27.5038 52.135 27.7278 52.1563C27.9518 52.1775 28.17 52.1891 28.3814 52.1891C28.8748 52.1891 29.3141 52.1147 29.7013 51.9651C30.0885 51.8154 30.4138 51.6156 30.6784 51.3645C30.9429 51.1135 31.1467 50.8229 31.2925 50.4936C31.4382 50.1644 31.5107 49.8226 31.5107 49.4702C31.5107 48.9507 31.4102 48.5259 31.2075 48.1967C31.0047 47.8674 30.7489 47.5923 30.4447 47.3721Z" fill="#7798CE"/>
<path d="M37.5992 47.3721C37.296 47.152 36.9677 46.9647 36.6153 46.8112C36.2629 46.6576 35.9375 46.4993 35.6382 46.3361C35.3389 46.173 35.0888 45.9847 34.8861 45.7684C34.6833 45.5521 34.5829 45.2683 34.5829 44.9168C34.5829 44.7759 34.6176 44.6281 34.6881 44.4746C34.7586 44.3211 34.8552 44.1821 34.9787 44.0585C35.1023 43.9349 35.2423 43.8325 35.4016 43.7485C35.5609 43.6645 35.727 43.6143 35.9037 43.597C36.2204 43.5709 36.4801 43.5661 36.6829 43.5834C36.8856 43.6008 37.0478 43.6317 37.1714 43.6761C37.295 43.7205 37.3896 43.764 37.4553 43.8084C37.5209 43.8528 37.5808 43.8876 37.6339 43.9136C37.6426 43.905 37.6687 43.8605 37.7131 43.7814C37.7575 43.7022 37.8106 43.6028 37.8714 43.484C37.9323 43.3652 37.9989 43.2378 38.0694 43.1016C38.1398 42.9655 38.2016 42.84 38.2538 42.7251C37.9979 42.5581 37.6648 42.4364 37.2506 42.3621C36.8364 42.2877 36.427 42.2501 36.0234 42.2501C35.6276 42.2501 35.251 42.3109 34.8947 42.4345C34.5385 42.5581 34.2266 42.7367 33.9572 42.9694C33.6878 43.2021 33.4754 43.4859 33.3171 43.821C33.1587 44.156 33.0796 44.5383 33.0796 44.969C33.0796 45.444 33.18 45.8399 33.3827 46.1565C33.5855 46.4732 33.8404 46.7484 34.1484 46.9811C34.4564 47.2138 34.7866 47.4165 35.1381 47.5884C35.4895 47.7603 35.8178 47.9312 36.1219 48.103C36.4261 48.2749 36.6781 48.4661 36.8808 48.6775C37.0836 48.889 37.184 49.1439 37.184 49.4432C37.184 49.9365 37.0411 50.3083 36.7553 50.5583C36.4695 50.8084 36.0572 50.9349 35.5214 50.9349C35.3447 50.9349 35.1564 50.9165 34.9536 50.8818C34.7509 50.847 34.5491 50.8007 34.3463 50.7427C34.1436 50.6848 33.9485 50.624 33.7593 50.5583C33.5701 50.4927 33.4146 50.4241 33.291 50.3536L33.0139 51.4891C33.1636 51.6214 33.3422 51.7334 33.5488 51.8261C33.7554 51.9187 33.9727 51.9912 34.2025 52.0443C34.4323 52.0974 34.6582 52.135 34.8822 52.1563C35.1062 52.1775 35.3244 52.1891 35.5358 52.1891C36.0292 52.1891 36.4685 52.1147 36.8557 51.9651C37.2429 51.8154 37.5683 51.6156 37.8328 51.3645C38.0974 51.1135 38.3011 50.8229 38.4469 50.4936C38.5927 50.1644 38.6651 49.8226 38.6651 49.4702C38.6651 48.9507 38.5647 48.5259 38.3619 48.1967C38.1592 47.8674 37.9033 47.5923 37.5992 47.3721Z" fill="#7798CE"/>
<path d="M19.7932 19.3103V15.4482C19.7932 14.9162 20.2257 14.4827 20.7587 14.4827C21.2926 14.4827 21.7242 14.0502 21.7242 13.5172C21.7242 12.9842 21.2926 12.5517 20.7587 12.5517C19.1617 12.5517 17.8621 13.8513 17.8621 15.4482V19.3103C17.8621 20.3753 16.9961 21.2414 15.9311 21.2414C15.3972 21.2414 14.9656 21.6739 14.9656 22.2069C14.9656 22.7398 15.3972 23.1724 15.9311 23.1724C16.9961 23.1724 17.8621 24.0385 17.8621 25.1034V28.9655C17.8621 30.5625 19.1617 31.862 20.7587 31.862C21.2926 31.862 21.7242 31.4295 21.7242 30.8965C21.7242 30.3636 21.2926 29.931 20.7587 29.931C20.2257 29.931 19.7932 29.4975 19.7932 28.9655V25.1034C19.7932 23.9448 19.2699 22.9156 18.4588 22.2069C19.2699 21.4982 19.7932 20.4689 19.7932 19.3103Z" fill="#7798CE"/>
</svg>
