<svg width="37" height="36" viewBox="0 0 37 36" fill="none" xmlns="http://www.w3.org/2000/svg">
<path d="M32.1092 22.7056C30.1484 27.0666 25.8029 30.0753 20.7713 30.0577C13.9042 30.0337 8.36921 24.3986 8.39242 17.4549C8.40943 12.3671 11.4146 7.99375 15.7408 6.04093C15.0234 7.62237 14.622 9.36491 14.6159 11.2048C14.5927 18.1325 20.1277 23.7837 26.9947 23.8077C28.8144 23.814 30.5404 23.4201 32.1092 22.7056Z" fill="#999CA0"/>
<ellipse rx="0.741694" ry="0.749971" transform="matrix(0.999994 0.00349523 -0.00334297 0.999994 6.19914 8.25769)" fill="#999CA0"/>
<ellipse rx="1.48339" ry="1.49994" transform="matrix(0.999994 0.00349523 -0.00334298 0.999994 21.7713 9.06148)" fill="#999CA0"/>
<ellipse rx="0.741694" ry="0.74997" transform="matrix(0.999994 0.00349522 -0.00334298 0.999994 28.4238 15.8345)" fill="#999CA0"/>
<ellipse rx="1.48339" ry="1.49994" transform="matrix(0.999994 0.00353384 -0.00330488 0.999995 5.39444 27.0051)" fill="#999CA0"/>
</svg>
