<svg width="62" height="43" viewBox="0 0 62 43" fill="none" xmlns="http://www.w3.org/2000/svg">
<path d="M58.5 13H58V3.5C57.999 2.57206 57.6299 1.68241 56.9737 1.02626C56.3176 0.370104 55.4279 0.00102566 54.5 0H7.5C6.57206 0.00102566 5.68241 0.370104 5.02626 1.02626C4.3701 1.68241 4.00103 2.57206 4 3.5V19H3.5C2.57206 19.001 1.68241 19.3701 1.02626 20.0263C0.370104 20.6824 0.00102566 21.5721 0 22.5V39.5C0.00102566 40.4279 0.370104 41.3176 1.02626 41.9737C1.68241 42.6299 2.57206 42.999 3.5 43H12.5C13.4279 42.999 14.3176 42.6299 14.9737 41.9737C15.6299 41.3176 15.999 40.4279 16 39.5V36H24.7188L24.2188 38H22C21.7348 38 21.4804 38.1054 21.2929 38.2929C21.1054 38.4804 21 38.7348 21 39V42C21 42.2652 21.1054 42.5196 21.2929 42.7071C21.4804 42.8946 21.7348 43 22 43H40C40.2652 43 40.5196 42.8946 40.7071 42.7071C40.8946 42.5196 41 42.2652 41 42V39C41 38.7348 40.8946 38.4804 40.7071 38.2929C40.5196 38.1054 40.2652 38 40 38H37.7812L37.2812 36H42V39.5C42.001 40.4279 42.3701 41.3176 43.0263 41.9737C43.6824 42.6299 44.5721 42.999 45.5 43H58.5C59.4279 42.999 60.3176 42.6299 60.9737 41.9737C61.6299 41.3176 61.999 40.4279 62 39.5V16.5C61.999 15.5721 61.6299 14.6824 60.9737 14.0263C60.3176 13.3701 59.4279 13.001 58.5 13ZM14 39.5C13.9997 39.8977 13.8415 40.2791 13.5603 40.5603C13.2791 40.8415 12.8977 40.9997 12.5 41H3.5C3.10228 40.9997 2.72094 40.8415 2.43971 40.5603C2.15847 40.2791 2.00033 39.8977 2 39.5V22.5C2.00033 22.1023 2.15847 21.7209 2.43971 21.4397C2.72094 21.1585 3.10228 21.0003 3.5 21H4.27875L5.05125 23.3162C5.11763 23.5154 5.24498 23.6886 5.41526 23.8113C5.58553 23.934 5.79011 24 6 24H10C10.2099 24 10.4145 23.934 10.5847 23.8113C10.755 23.6886 10.8824 23.5154 10.9487 23.3162L11.7212 21H12.5C12.8977 21.0003 13.2791 21.1585 13.5603 21.4397C13.8415 21.7209 13.9997 22.1023 14 22.5V39.5ZM6.3875 21H9.6125L9.27875 22H6.72125L6.3875 21ZM39 40V41H23V40H39ZM26.2812 38L26.7812 36H35.2188L35.7188 38H26.2812ZM42 34H16V30H42V34ZM42 16.5V28H16V22.5C15.999 21.5721 15.6299 20.6824 14.9737 20.0263C14.3176 19.3701 13.4279 19.001 12.5 19H6V3.5C6.00033 3.10228 6.15847 2.72094 6.43971 2.43971C6.72094 2.15847 7.10228 2.00033 7.5 2H54.5C54.8977 2.00033 55.2791 2.15847 55.5603 2.43971C55.8415 2.72094 55.9997 3.10228 56 3.5V13H45.5C44.5721 13.001 43.6824 13.3701 43.0263 14.0263C42.3701 14.6824 42.001 15.5721 42 16.5ZM53.6125 15L53.2788 16H50.7212L50.3875 15H53.6125ZM60 39.5C59.9997 39.8977 59.8415 40.2791 59.5603 40.5603C59.2791 40.8415 58.8977 40.9997 58.5 41H45.5C45.1023 40.9997 44.7209 40.8415 44.4397 40.5603C44.1585 40.2791 44.0003 39.8977 44 39.5V16.5C44.0003 16.1023 44.1585 15.7209 44.4397 15.4397C44.7209 15.1585 45.1023 15.0003 45.5 15H48.2788L49.0513 17.3162C49.1176 17.5154 49.245 17.6886 49.4153 17.8113C49.5855 17.934 49.7901 18 50 18H54C54.2099 18 54.4145 17.934 54.5847 17.8113C54.755 17.6886 54.8824 17.5154 54.9487 17.3162L55.7212 15H58.5C58.8977 15.0003 59.2791 15.1585 59.5603 15.4397C59.8415 15.7209 59.9997 16.1023 60 16.5V39.5Z" fill="#7798CE"/>
<path d="M54 38H50C49.7348 38 49.4804 38.1054 49.2929 38.2929C49.1054 38.4804 49 38.7348 49 39C49 39.2652 49.1054 39.5196 49.2929 39.7071C49.4804 39.8946 49.7348 40 50 40H54C54.2652 40 54.5196 39.8946 54.7071 39.7071C54.8946 39.5196 55 39.2652 55 39C55 38.7348 54.8946 38.4804 54.7071 38.2929C54.5196 38.1054 54.2652 38 54 38Z" fill="#7798CE"/>
<path d="M10 38H6C5.73478 38 5.48043 38.1054 5.29289 38.2929C5.10536 38.4804 5 38.7348 5 39C5 39.2652 5.10536 39.5196 5.29289 39.7071C5.48043 39.8946 5.73478 40 6 40H10C10.2652 40 10.5196 39.8946 10.7071 39.7071C10.8946 39.5196 11 39.2652 11 39C11 38.7348 10.8946 38.4804 10.7071 38.2929C10.5196 38.1054 10.2652 38 10 38Z" fill="#7798CE"/>
<path d="M32 31H30C29.7348 31 29.4804 31.1054 29.2929 31.2929C29.1054 31.4804 29 31.7348 29 32C29 32.2652 29.1054 32.5196 29.2929 32.7071C29.4804 32.8946 29.7348 33 30 33H32C32.2652 33 32.5196 32.8946 32.7071 32.7071C32.8946 32.5196 33 32.2652 33 32C33 31.7348 32.8946 31.4804 32.7071 31.2929C32.5196 31.1054 32.2652 31 32 31Z" fill="#7798CE"/>
</svg>
