<svg width="55" height="55" viewBox="0 0 55 55" fill="none" xmlns="http://www.w3.org/2000/svg">
<circle cx="27.5" cy="27.5" r="26.5" stroke="#7798CE" stroke-width="2"/>
<path d="M36.3862 35.5868C36.3862 33.9325 35.8052 32.6268 34.6431 31.6698C33.481 30.6991 31.355 29.7831 28.2651 28.9218C25.1753 28.0468 22.9194 27.0966 21.4976 26.0712C19.4741 24.6219 18.4624 22.7216 18.4624 20.37C18.4624 18.0868 19.3989 16.2343 21.272 14.8124C23.1587 13.3768 25.5649 12.6591 28.4907 12.6591C30.4731 12.6591 32.2437 13.0419 33.8022 13.8075C35.3745 14.5731 36.5913 15.6395 37.4526 17.0067C38.314 18.3739 38.7446 19.8983 38.7446 21.58H36.2017C36.2017 19.5428 35.5044 17.9091 34.1099 16.6786C32.7153 15.4344 30.8423 14.8124 28.4907 14.8124C26.2075 14.8124 24.3892 15.3251 23.0356 16.3505C21.6821 17.3622 21.0054 18.6884 21.0054 20.329C21.0054 21.8466 21.6138 23.0839 22.8306 24.0409C24.0474 24.9979 25.9956 25.8456 28.6753 26.5839C31.355 27.3085 33.3853 28.0673 34.7661 28.8602C36.147 29.6395 37.186 30.576 37.8833 31.6698C38.5806 32.7635 38.9292 34.0555 38.9292 35.5458C38.9292 37.8973 37.9858 39.7841 36.0991 41.2059C34.2261 42.6278 31.7515 43.3387 28.6753 43.3387C26.5698 43.3387 24.6353 42.9628 22.8716 42.2108C21.1216 41.4589 19.7886 40.4061 18.8726 39.0526C17.9702 37.6991 17.519 36.1473 17.519 34.3973H20.0415C20.0415 36.5028 20.8276 38.1639 22.3999 39.3807C23.9722 40.5975 26.064 41.2059 28.6753 41.2059C30.9995 41.2059 32.8657 40.6932 34.2739 39.6678C35.6821 38.6425 36.3862 37.2821 36.3862 35.5868Z" fill="#7798CE"/>
</svg>
