<svg width="32" height="33" viewBox="0 0 32 33" fill="none" xmlns="http://www.w3.org/2000/svg">
<path d="M29.8987 21.7055L26.7814 19.4668C27.3049 17.5227 27.302 15.4723 26.7728 13.5297L29.9004 11.3187L27.4035 6.95577L23.9253 8.56282C22.5194 7.13283 20.7591 6.11032 18.8283 5.6021L18.4966 1.7615H13.5027L13.171 5.6021C11.2406 6.11102 9.48085 7.13413 8.07572 8.56455L4.59579 6.95751L2.10056 11.3205L5.22819 13.5315C4.69877 15.4733 4.6952 17.5231 5.21788 19.4668L2.10056 21.7055L4.59579 26.0477L8.07572 24.4389C9.48105 25.8687 11.2407 26.8912 13.171 27.3996L13.5027 31.2402H18.4966L18.8283 27.3996C20.7585 26.8911 22.5182 25.8686 23.9236 24.4389L27.4035 26.0477L29.9004 21.7073L29.8987 21.7055ZM19.4452 4.86771e-07C19.6664 -0.000235975 19.8792 0.0856867 20.0392 0.239883C20.1993 0.39408 20.2943 0.604671 20.3044 0.827821L20.6103 4.35951C21.8807 4.8484 23.0658 5.53851 24.1212 6.40389L27.3004 4.90618C27.4967 4.80415 27.7244 4.78238 27.9363 4.8454C28.1481 4.90841 28.3278 5.05136 28.438 5.2446L31.8836 11.2667C31.9943 11.4597 32.0271 11.6884 31.9753 11.9052C31.9234 12.1221 31.7909 12.3104 31.6052 12.4312L28.7284 14.4652C28.9484 15.8501 28.9415 17.2298 28.7301 18.5591L31.6052 20.5896C31.7913 20.7104 31.9242 20.8991 31.9761 21.1163C32.0279 21.3336 31.9948 21.5627 31.8836 21.7559L28.438 27.7554C28.3278 27.9486 28.1481 28.0916 27.9363 28.1546C27.7244 28.2176 27.4967 28.1958 27.3004 28.0938L24.1212 26.5961C23.0867 27.4465 21.9078 28.1407 20.6103 28.6422L20.3044 32.1739C20.2938 32.3968 20.1986 32.6069 20.0386 32.7607C19.8786 32.9146 19.6661 33.0003 19.4452 33H12.5541C12.3332 33.0003 12.1206 32.9146 11.9606 32.7607C11.8006 32.6069 11.7054 32.3968 11.6948 32.1739L11.389 28.6422C10.1185 28.1527 8.93341 27.462 7.87809 26.5961L4.6989 28.0938C4.50257 28.1965 4.2746 28.2188 4.06239 28.1561C3.85019 28.0934 3.67009 27.9505 3.55955 27.7571L0.115711 21.7541C0.00500336 21.5611 -0.0278398 21.3324 0.0240001 21.1156C0.07584 20.8987 0.20838 20.7104 0.394105 20.5896L3.26912 18.5574C3.05383 17.2014 3.05383 15.8194 3.26912 14.4634L0.395824 12.4312C0.210554 12.3105 0.0783301 12.1224 0.0265109 11.906C-0.0253084 11.6896 0.00724287 11.4613 0.11743 11.2684L3.55783 5.2446C3.66809 5.05092 3.84807 4.90764 4.06029 4.84461C4.27252 4.78157 4.50065 4.80362 4.69718 4.90618L7.87637 6.40389C8.93176 5.53851 10.1169 4.8484 11.3872 4.35951L11.6931 0.827821C11.7033 0.604671 11.7983 0.39408 11.9583 0.239883C12.1184 0.0856867 12.3312 -0.000235975 12.5524 4.86771e-07H19.4452ZM15.9996 10.4389C17.5948 10.4389 19.1247 11.0788 20.2527 12.2179C21.3806 13.3571 22.0143 14.9021 22.0143 16.513C22.0143 18.124 21.3806 19.669 20.2527 20.8081C19.1247 21.9472 17.5948 22.5872 15.9996 22.5872C14.4044 22.5872 12.8746 21.9472 11.7466 20.8081C10.6186 19.669 9.98495 18.124 9.98495 16.513C9.98495 14.9021 10.6186 13.3571 11.7466 12.2179C12.8746 11.0788 14.4044 10.4389 15.9996 10.4389ZM15.9996 12.1743C14.8602 12.1743 13.7675 12.6314 12.9618 13.4451C12.1561 14.2588 11.7034 15.3623 11.7034 16.513C11.7034 17.6637 12.1561 18.7673 12.9618 19.5809C13.7675 20.3946 14.8602 20.8517 15.9996 20.8517C17.1391 20.8517 18.2318 20.3946 19.0375 19.5809C19.8432 18.7673 20.2958 17.6637 20.2958 16.513C20.2958 15.3623 19.8432 14.2588 19.0375 13.4451C18.2318 12.6314 17.1391 12.1743 15.9996 12.1743Z" fill="white"/>
</svg>
